<svg xmlns="http://www.w3.org/2000/svg" enable-background="new 0 0 512 512" viewBox="0 0 512 512"><path fill="#c17d61" d="M351.524,177.177c0,96.285-78.077,174.361-174.361,174.361c-96.343,0-174.42-78.077-174.42-174.361c0-96.343,78.077-174.42,174.42-174.42C273.447,2.757,351.524,80.833,351.524,177.177z"/><path fill="#fff" d="M28.472,187.474c-5.688,0-10.3-4.612-10.3-10.3c0-19.042,3.35-37.679,9.953-55.398c1.987-5.329,7.909-8.04,13.25-6.053c5.329,1.987,8.04,7.919,6.053,13.25c-5.744,15.408-8.656,31.626-8.656,48.2C38.772,182.862,34.16,187.474,28.472,187.474z" opacity=".4"/><path d="M351.546,177.173c0,96.309-78.078,174.387-174.387,174.387c-6.386,0-12.721-0.361-18.901-0.979c87.451-9.477,155.485-83.485,155.485-173.408c0-89.974-68.035-163.983-155.485-173.46c6.18-0.618,12.515-0.979,18.901-0.979C273.468,2.735,351.546,80.813,351.546,177.173z" opacity=".08"/><circle cx="112.499" cy="92.549" r="25.914" fill="#ad6850" transform="rotate(-76.714 112.51 92.552)"/><path d="M138.414,92.549c0,14.299-11.569,25.914-25.914,25.914c-2.73,0-5.368-0.417-7.821-1.203c10.504-3.285,18.094-13.142,18.094-24.711c0-11.615-7.589-21.426-18.094-24.711c2.452-0.787,5.09-1.203,7.821-1.203C126.845,66.634,138.414,78.203,138.414,92.549z" opacity=".08"/><circle cx="89.142" cy="223.335" r="23.358" fill="#ad6850" transform="rotate(-76.714 89.154 223.349)"/><path d="M112.499,223.335c0,12.888-10.428,23.358-23.358,23.358c-2.461,0-4.839-0.376-7.049-1.085c9.468-2.961,16.309-11.846,16.309-22.273c0-10.469-6.841-19.312-16.309-22.273c2.211-0.709,4.588-1.085,7.049-1.085C102.072,199.977,112.499,210.405,112.499,223.335z" opacity=".08"/><circle cx="146.824" cy="293.487" r="23.963" fill="#ad6850" transform="rotate(-76.714 146.843 293.504)"/><path d="M170.787,293.487c0,13.222-10.698,23.963-23.963,23.963c-2.525,0-4.964-0.385-7.232-1.113c9.713-3.038,16.731-12.153,16.731-22.85c0-10.741-7.018-19.812-16.731-22.851c2.268-0.727,4.707-1.113,7.232-1.113C160.089,269.524,170.787,280.222,170.787,293.487z" opacity=".08"/><circle cx="226.06" cy="101.812" r="28.841" fill="#ad6850" transform="rotate(-76.714 226.08 101.813)"/><path d="M254.902,101.812c0,15.914-12.876,28.841-28.841,28.841c-3.039,0-5.974-0.464-8.704-1.339c11.691-3.656,20.137-14.626,20.137-27.502c0-12.927-8.446-23.846-20.137-27.502c2.729-0.875,5.665-1.339,8.704-1.339C242.026,72.971,254.902,85.846,254.902,101.812z" opacity=".08"/><circle cx="159.604" cy="187.474" r="16.338" fill="#ad6850" transform="rotate(-76.714 159.62 187.483)"/><path d="M175.942,187.474c0,9.015-7.294,16.338-16.338,16.338c-1.721,0-3.384-0.263-4.931-0.759c6.623-2.071,11.408-8.286,11.408-15.58c0-7.323-4.785-13.508-11.408-15.58c1.546-0.496,3.209-0.759,4.931-0.759C168.648,171.136,175.942,178.43,175.942,187.474z" opacity=".08"/><path fill="#c17d61" d="M509.247,334.878c0,96.285-78.077,174.361-174.361,174.361c-96.343,0-174.42-78.077-174.42-174.361c0-96.343,78.077-174.42,174.42-174.42C431.17,160.458,509.247,238.535,509.247,334.878z"/><path fill="#fff" d="M186.195,345.175c-5.688,0-10.3-4.612-10.3-10.3c0-19.042,3.35-37.679,9.953-55.398c1.987-5.329,7.909-8.04,13.25-6.053c5.329,1.987,8.04,7.919,6.053,13.25c-5.744,15.408-8.656,31.626-8.656,48.2C196.495,340.563,191.883,345.175,186.195,345.175z" opacity=".4"/><path d="M509.269,334.874c0,96.309-78.078,174.387-174.387,174.387c-6.386,0-12.721-0.361-18.901-0.979c87.451-9.477,155.485-83.485,155.485-173.408c0-89.974-68.035-163.983-155.485-173.46c6.18-0.618,12.515-0.979,18.901-0.979C431.191,160.436,509.269,238.514,509.269,334.874z" opacity=".08"/><circle cx="270.223" cy="250.25" r="25.914" fill="#ad6850" transform="rotate(-76.714 270.25 250.26)"/><path d="M296.137,250.25c0,14.299-11.569,25.914-25.914,25.914c-2.73,0-5.368-0.417-7.821-1.203c10.504-3.285,18.094-13.142,18.094-24.711c0-11.615-7.589-21.426-18.094-24.711c2.452-0.787,5.09-1.203,7.821-1.203C284.568,224.335,296.137,235.904,296.137,250.25z" opacity=".08"/><circle cx="246.865" cy="381.036" r="23.358" fill="#ad6850" transform="rotate(-76.714 246.893 381.057)"/><path d="M270.222,381.036c0,12.888-10.428,23.358-23.358,23.358c-2.461,0-4.839-0.375-7.049-1.085c9.468-2.961,16.309-11.846,16.309-22.273c0-10.469-6.841-19.312-16.309-22.273c2.211-0.709,4.588-1.085,7.049-1.085C259.795,357.678,270.222,368.106,270.222,381.036z" opacity=".08"/><circle cx="304.547" cy="451.188" r="23.963" fill="#ad6850" transform="rotate(-76.714 304.582 451.213)"/><path d="M328.51,451.189c0,13.222-10.698,23.963-23.963,23.963c-2.525,0-4.964-0.385-7.232-1.113c9.713-3.038,16.731-12.153,16.731-22.85c0-10.741-7.018-19.812-16.731-22.851c2.268-0.727,4.707-1.113,7.232-1.113C317.812,427.225,328.51,437.923,328.51,451.189z" opacity=".08"/><circle cx="401.757" cy="387.697" r="22.738" fill="#ad6850" transform="rotate(-76.714 401.797 387.714)"/><path d="M424.495,387.697c0,12.546-10.151,22.738-22.738,22.738c-2.396,0-4.71-0.366-6.862-1.056c9.217-2.883,15.876-11.531,15.876-21.682c0-10.192-6.659-18.8-15.876-21.683c2.152-0.69,4.466-1.056,6.862-1.056C414.344,364.958,424.495,375.109,424.495,387.697z" opacity=".08"/><circle cx="383.784" cy="259.513" r="28.841" fill="#ad6850" transform="rotate(-76.714 383.819 259.521)"/><path d="M412.625,259.513c0,15.914-12.876,28.841-28.841,28.841c-3.039,0-5.974-0.464-8.704-1.339c11.691-3.656,20.137-14.626,20.137-27.502c0-12.927-8.446-23.846-20.137-27.502c2.729-0.875,5.665-1.339,8.704-1.339C399.749,230.672,412.625,243.547,412.625,259.513z" opacity=".08"/><circle cx="317.327" cy="345.175" r="16.338" fill="#ad6850" transform="rotate(-76.714 317.36 345.191)"/><path d="M333.665,345.175c0,9.015-7.294,16.338-16.338,16.338c-1.721,0-3.384-0.263-4.931-0.759c6.623-2.071,11.408-8.286,11.408-15.58c0-7.323-4.785-13.508-11.408-15.58c1.546-0.496,3.209-0.759,4.931-0.759C326.371,328.837,333.665,336.131,333.665,345.175z" opacity=".08"/><path d="M89.153 197.366c-14.319 0-25.969 11.65-25.969 25.969 0 14.318 11.65 25.968 25.969 25.968s25.968-11.65 25.968-25.968C115.121 209.016 103.472 197.366 89.153 197.366zM89.153 244.082c-11.441 0-20.747-9.307-20.747-20.746 0-11.441 9.307-20.747 20.747-20.747 11.44 0 20.746 9.307 20.746 20.747C109.899 234.775 100.592 244.082 89.153 244.082zM112.51 121.073c15.73 0 28.525-12.796 28.525-28.524 0-15.73-12.796-28.526-28.525-28.526S83.985 76.82 83.985 92.549C83.985 108.277 96.781 121.073 112.51 121.073zM112.51 69.246c12.85 0 23.304 10.454 23.304 23.304s-10.454 23.302-23.304 23.302-23.304-10.453-23.304-23.302S99.66 69.246 112.51 69.246zM226.071 133.264c17.344 0 31.453-14.109 31.453-31.451 0-17.344-14.109-31.453-31.453-31.453s-31.453 14.109-31.453 31.453C194.619 119.155 208.728 133.264 226.071 133.264zM226.071 75.582c14.464 0 26.231 11.767 26.231 26.231s-11.767 26.229-26.231 26.229-26.231-11.766-26.231-26.229S211.608 75.582 226.071 75.582zM159.614 206.423c10.449 0 18.95-8.501 18.95-18.949 0-10.449-8.501-18.95-18.95-18.95-10.448 0-18.949 8.501-18.949 18.95C140.666 197.922 149.167 206.423 159.614 206.423zM159.614 173.746c7.57 0 13.728 6.159 13.728 13.728s-6.158 13.727-13.728 13.727c-7.569 0-13.727-6.158-13.727-13.727S152.045 173.746 159.614 173.746zM246.876 355.068c-14.319 0-25.969 11.65-25.969 25.968 0 14.319 11.65 25.969 25.969 25.969s25.968-11.65 25.968-25.969C272.844 366.718 261.196 355.068 246.876 355.068zM246.876 401.783c-11.441 0-20.747-9.307-20.747-20.747 0-11.44 9.307-20.746 20.747-20.746 11.44 0 20.746 9.307 20.746 20.746C267.622 392.477 258.316 401.783 246.876 401.783z"/><path d="M353.166,158.789c-4.431-42.969-24.367-82.699-56.357-112.066C264.094,16.689,221.608,0.15,177.181,0.15C79.556,0.15,0.132,79.562,0.132,177.173c0,44.444,16.549,86.936,46.598,119.648c29.371,31.973,69.105,51.901,112.078,56.335c9.18,89.027,84.647,158.694,176.089,158.694c97.582,0,176.972-79.389,176.972-176.973C511.868,243.433,442.196,167.964,353.166,158.789z M5.354,177.173c0-94.731,77.082-171.802,171.827-171.802c88.402,0,161.222,65.568,170.681,153.002c-4.287-0.312-8.6-0.526-12.965-0.526c-77.36,0-143.244,49.897-167.275,119.182c-4.966-6.248-12.611-10.117-20.781-10.117c-14.656,0-26.58,11.923-26.58,26.579c0,14.656,11.924,26.58,26.58,26.58c4.219,0,8.248-0.982,11.906-2.829c-0.577,5.803-0.882,11.684-0.882,17.636c0,4.368,0.214,8.685,0.527,12.975C70.937,338.385,5.354,265.568,5.354,177.173z M159.57,310.612c-3.693,2.764-8.068,4.237-12.729,4.237c-11.777,0-21.358-9.581-21.358-21.358c0-11.776,9.581-21.357,21.358-21.357c7.807,0,15.034,4.369,18.711,11.16C162.856,292.128,160.859,301.257,159.57,310.612z M334.897,506.629c-94.737,0-171.81-77.048-171.81-171.751c0-94.735,77.073-171.808,171.81-171.808c94.703,0,171.75,77.073,171.75,171.808C506.646,429.581,429.6,506.629,334.897,506.629z"/><path d="M270.233 278.775c15.729 0 28.526-12.796 28.526-28.526 0-15.729-12.796-28.525-28.526-28.525s-28.525 12.796-28.525 28.525C241.708 265.979 254.504 278.775 270.233 278.775zM270.233 226.946c12.85 0 23.304 10.454 23.304 23.304 0 12.85-10.454 23.304-23.304 23.304s-23.304-10.454-23.304-23.304C246.93 237.4 257.384 226.946 270.233 226.946zM304.558 424.614c-14.652 0-26.574 11.921-26.574 26.575 0 14.652 11.921 26.574 26.574 26.574s26.574-11.921 26.574-26.574C331.132 436.536 319.211 424.614 304.558 424.614zM304.558 472.541c-11.774 0-21.352-9.578-21.352-21.352 0-11.774 9.578-21.353 21.352-21.353 11.774 0 21.352 9.579 21.352 21.353C325.91 462.963 316.332 472.541 304.558 472.541zM401.768 362.348c-13.978 0-25.35 11.372-25.35 25.35s11.372 25.349 25.35 25.349 25.348-11.371 25.348-25.349S415.746 362.348 401.768 362.348zM401.768 407.824c-11.099 0-20.128-9.029-20.128-20.127 0-11.099 9.029-20.128 20.128-20.128 11.098 0 20.127 9.029 20.127 20.128C421.895 398.795 412.866 407.824 401.768 407.824zM415.246 259.513c0-17.344-14.109-31.453-31.451-31.453-17.344 0-31.453 14.109-31.453 31.453s14.109 31.453 31.453 31.453C401.137 290.966 415.246 276.856 415.246 259.513zM357.564 259.513c0-14.464 11.767-26.231 26.231-26.231s26.229 11.767 26.229 26.231c0 14.464-11.766 26.231-26.229 26.231S357.564 273.976 357.564 259.513zM317.338 326.226c-10.449 0-18.95 8.501-18.95 18.949 0 10.449 8.501 18.95 18.95 18.95 10.448 0 18.949-8.501 18.949-18.95C336.286 334.727 327.785 326.226 317.338 326.226zM317.338 358.903c-7.57 0-13.728-6.159-13.728-13.728s6.158-13.727 13.728-13.727c7.569 0 13.727 6.158 13.727 13.727S324.907 358.903 317.338 358.903z"/></svg>