<svg xmlns="http://www.w3.org/2000/svg" data-name="Layer 1" viewBox="0 0 517 516" id="man-thinking-to-start-a-startup"><g data-name="startup planning"><path fill="#020101" d="M349.56 90.28a21.6 21.6 0 0 0-11-15.35 24.71 24.71 0 0 0-17.16-3.05 23.82 23.82 0 0 0-14.58 8.18 20.39 20.39 0 0 0-5 15.6 21.21 21.21 0 0 0 7.71 14.5 25.58 25.58 0 0 0 31.06 1.2 59.7 59.7 0 0 0 5.33-5.34 20.41 20.41 0 0 0 3.64-15.74ZM338.1 111a24.46 24.46 0 0 1-13.43 3.37 22.4 22.4 0 0 1-14.92-6.28 19.42 19.42 0 0 1 .49-29 23.79 23.79 0 0 1 30.57-.48c10.75 8.98 9.56 24.97-2.71 32.39Z"></path><path d="M390.48 14.8a.8.8 0 0 0-1.1 0c-.49.41-.94.87-1.4 1.32-2.5 2.49-5 5-7.51 7.49a2 2 0 0 1-2.13.7c-.31-.09-.64-.08-1-.14a126.82 126.82 0 0 0-19.16-1.83 194 194 0 0 0-22.87.54c-4.4.34-8.8.75-13.16 1.49a190.89 190.89 0 0 0-23.6 5.72 80.08 80.08 0 0 0-21.72 10.15 109 109 0 0 0-27.24 26 271.66 271.66 0 0 0-17.15 26.45q-1.38 2.4-2.77 4.79c-.68 1.16-.7 1.16-1.87.78-.69-.22-1.36-.48-2-.72a46.76 46.76 0 0 0-8.15-2.05 85.82 85.82 0 0 0-13.2-.93 62.35 62.35 0 0 0-18.78 2.55c-11.75 3.55-19.56 11-22.46 23.15a138.6 138.6 0 0 0-3.63 22.07A133.24 133.24 0 0 0 159 157a22 22 0 0 0 2 8.38 12.23 12.23 0 0 0 4.37 5c3 2.09 8.29 2.75 11.73-1.43.2-.24.44-.45.66-.68-.38-2 .55-3.77 1.28-5.47a54.16 54.16 0 0 1 13-18.93 26.84 26.84 0 0 1 12-6.28c2.95-.71 3.71.15 2.82 3.06a27.52 27.52 0 0 0-1 14 8.1 8.1 0 0 0 5.17 6.18c1.89.78 2 1.47.41 2.82-5.33 4.39-10.31 9.17-15.59 13.61-3.87 3.26-7.48 6.8-11.32 10.09a9.46 9.46 0 0 0-2.78 4.17 5.37 5.37 0 0 0 1.55 5.68c1.66 1.34 3.33.9 4.93-.05 3.68-2.18 6.79-5.11 10.19-7.67 7.1-5.38 14.2-10.75 20.53-17.06a2.37 2.37 0 0 1 1.88-.93l.12.05c.2-.12.43.1.42.31a1.8 1.8 0 0 1 .25.4c1 4.57 3.43 6.56 8.66 6.46 3.91-.07 7.84-.35 11.75-.61 2.53-.16 3.28.59 2.59 3.08-2.17 7.82-6.62 13.67-14.62 16.19-3.22 1-6.45 2-9.74 2.72a49.78 49.78 0 0 0-15.26 5.63 1.42 1.42 0 0 1-.38-.08 2.69 2.69 0 0 0-1.46 1.52 5.25 5.25 0 0 0-.22.55 4.15 4.15 0 0 1-.58 1c-.42.5 0 1.18-.38 1.7-.31 3.57 1.31 6.17 4.16 8.12l.6.42a34.85 34.85 0 0 0 19.41 6.26 57.43 57.43 0 0 0 8.89-.42 85.16 85.16 0 0 0 17.84-3.87 111.31 111.31 0 0 0 17-7.27 39.54 39.54 0 0 0 14.34-12.94 27.27 27.27 0 0 0 4-9 56.47 56.47 0 0 0 1.43-11.93c.05-3.54.32-7.06.54-10.59a2.66 2.66 0 0 1 1.78-2.54c2.34-1.06 4.6-2.29 6.86-3.49A155.43 155.43 0 0 0 328 143.33c7.8-6.82 15.24-14 22.48-21.45a129 129 0 0 0 20.46-27.29A85.87 85.87 0 0 0 380 72.4c.7-3 1.38-5.94 1.94-8.93a78.33 78.33 0 0 0 1.58-18.2c-.15-3.13-.41-6.25-.62-9.37a22.53 22.53 0 0 0-1.37-6.33c-.3-.83-.44-1.71-.69-2.55a2 2 0 0 1 .7-2.12c2.59-2.52 5.14-5.08 7.7-7.64.45-.45.9-.91 1.31-1.4a.7.7 0 0 0-.07-1.06ZM207.07 136.45c-7-.06-12.43 3.28-17.2 8A55.8 55.8 0 0 0 179 160.19a26.1 26.1 0 0 0-1.8 4.72 7.57 7.57 0 0 1-2 3.74c-2.67 2.58-6.74 1.91-8.9.33a10.94 10.94 0 0 1-3.81-4.57 20.25 20.25 0 0 1-1.59-6.51 103.23 103.23 0 0 1 .43-14.18c.26-3.37.54-6.72 1.07-10.05.75-4.6 1.58-9.18 2.74-13.68 2.69-10.4 9.37-17.16 19.41-20.63a55 55 0 0 1 17.73-3h6.26a58.29 58.29 0 0 1 18.18 3.17c.44.15.87.36 1.25.52a2.27 2.27 0 0 1-.56 1.65c-2.3 3.86-4.55 7.75-6.94 11.55A172.75 172.75 0 0 0 208.46 135c-.13.29-.25.59-.41.87a1 1 0 0 1-.98.58Zm4.77 22.06c-1.12 1.11-1.43 1.08-2.63.12-.68-.55-.76-.8-.17-1.59 1.2-1.61 2.42-3.21 3.71-4.74 1.45-1.71 3-3.35 4.5-5 .27-.3.61-.57.6-1a1.13 1.13 0 0 0-.23-.64.54.54 0 0 0-.64-.18 3.46 3.46 0 0 0-1.48 1.19 87.22 87.22 0 0 0-7.1 8.49c-.23.31-.36.74-.93.76a4 4 0 0 1-.25-4 15.25 15.25 0 0 1 2.11-3.48 37.54 37.54 0 0 1 5.95-5.6 14.6 14.6 0 0 0 1.27-1.09.63.63 0 0 0 0-.87.74.74 0 0 0-.83-.33 4.7 4.7 0 0 0-1 .62 32.56 32.56 0 0 0-7.51 7.4c-1.26-.36-.6-1.22-.5-1.94a30.32 30.32 0 0 1 2.3-8.56 142.38 142.38 0 0 1 10.56-20.23c1.26-2 2.53-4 3.95-6.32 1.37 2.44 2.25 4.83 3.55 7s2.53 4.29 3.93 6.34 3 4.17 4.58 6.19 3.16 3.82 4.77 5.74a7.21 7.21 0 0 1-.69.74c-7.32 6.26-14.32 12.89-21.37 19.45a13.08 13.08 0 0 1-3.8 2.49 1.18 1.18 0 0 1-1.25 0 70.67 70.67 0 0 0 7.52-8.44 17.07 17.07 0 0 0 1.12-1.56.62.62 0 0 0-.18-.85.64.64 0 0 0-.87-.1 6.43 6.43 0 0 0-1 1c-1.33 1.6-2.59 3.27-4 4.84s-2.63 2.8-3.99 4.15Zm7.07 12.49c-2.43 2.21-4.81 4.49-7.26 6.67-1.8 1.6-3.65 3.15-5.55 4.62q-7 5.46-14.13 10.83c-1.4 1.07-2.84 2.09-4.28 3.12-1 .73-2.16 1.2-3.36.51a3.83 3.83 0 0 1-1.87-3.66 4.54 4.54 0 0 1 1.25-3.06 37.76 37.76 0 0 1 3.19-3.26c5.63-5 11.35-9.94 16.92-15s11.46-9.56 16.91-14.67c4.68-4.39 9.3-8.84 14.14-13.07 5.31-4.65 10.57-9.36 15.85-14a14.34 14.34 0 0 1 3.11-2.25 2.46 2.46 0 0 1 3.74 1.31 2.2 2.2 0 0 1 0 1.86 11.05 11.05 0 0 1-1.8 2.83 129.49 129.49 0 0 1-9.06 10c-4.27 4.24-8.5 8.53-12.77 12.76-2.5 2.49-5.09 4.89-7.57 7.4s-4.91 4.68-7.46 7.06Zm20.61 6.26c-.75.07-1.51.08-2.29.12.14-.6.56-.66.92-.83q2.7-1.32 5.37-2.68a2.66 2.66 0 0 0 1.43-1.23.84.84 0 0 0 0-.66.93.93 0 0 0-.62-.31c-.6-.06-1 .37-1.52.64a48.16 48.16 0 0 1-9 4c-1.84.61-3.77.74-5.64 1.19a2.85 2.85 0 0 1-2.05-.58c.28-.55.86-.62 1.34-.81a50.32 50.32 0 0 0 8.83-4.88 6.07 6.07 0 0 0 .57-.43.86.86 0 0 0 .33-1 .88.88 0 0 0-1.26-.28c-1.24.74-2.45 1.52-3.67 2.29a36.32 36.32 0 0 1-7.32 3.6c-.45.15-.91.41-1.3-.08s-.27-.89.27-1.49a22.85 22.85 0 0 1 4.19-3.6 54 54 0 0 1 6-3.58c.51-.26 1.06-.49.92-1.21-.09-.51-.88-.7-1.65-.31a40.66 40.66 0 0 0-8.26 5.34 4.86 4.86 0 0 1-1.78 1.31 5.5 5.5 0 0 1 1.26-3.51 10.89 10.89 0 0 1 1.61-1.78c2.82-2.51 5.44-5.23 8.09-7.91L247 145.68c.17-.18.35-.34.51-.52.38-.41.77-.54 1.22-.09.29.28.6.53.9.8a131.54 131.54 0 0 0 33 21.76c.29.13.56.3 1 .51a7.4 7.4 0 0 1-1.1.61c-6.14 2.09-12.2 4.48-18.62 5.59-3.79.65-7.61 1.17-11.43 1.61-4.33.5-8.65.86-12.96 1.26Zm48.17 6a49.3 49.3 0 0 1-1.17 8.09c-1.37 5.92-4.74 10.65-9 14.82a37.44 37.44 0 0 1-8.59 6.16 92.88 92.88 0 0 1-13.17 5.87 89.07 89.07 0 0 1-13.61 3.95 82.77 82.77 0 0 1-14.1 1.54c-7.47 0-14.48-1.66-20.63-6.16a14.45 14.45 0 0 1-2.19-1.86 5.44 5.44 0 0 1-.61-6.87 8.81 8.81 0 0 1 2.07-2.32 18.22 18.22 0 0 1 6.86-3.38c4.72-1.25 9.46-2.49 14.17-3.79a45.13 45.13 0 0 0 4.56-1.52 20.21 20.21 0 0 0 11.44-11.09 28 28 0 0 0 2.17-6.87 1.51 1.51 0 0 1 1.55-1.45c2.24-.2 4.46-.5 6.69-.77a92.73 92.73 0 0 0 17-3.12c5.2-1.62 10.38-3.33 15.45-5.34a3.21 3.21 0 0 1 1.74-.45c-.18 4.88-.32 9.68-.63 14.48Zm36.08-38.59c-.69.66-1.4 1.31-2.15 1.9a144.66 144.66 0 0 1-15.47 10.63 166.41 166.41 0 0 1-16.78 8.94c-.36.17-.75.29-1.1.49a4 4 0 0 1-4.06 0 127.14 127.14 0 0 1-27.43-16.82c-2-1.6-3.95-3.29-5.89-5-1.55-1.34-1.6-1.31-.18-2.74 2.32-2.34 4.43-4.87 6.52-7.41a11.89 11.89 0 0 0 1.7-2.62 4.34 4.34 0 0 0-1.14-5.44 3.56 3.56 0 0 0-3.79-.76 14.31 14.31 0 0 0-4.39 2.91c-2.19 1.89-4.34 3.83-6.5 5.74-.42.37-.86.71-1.29 1.07a3.52 3.52 0 0 1-.65-.41 89.11 89.11 0 0 1-13.94-19.85c-.71-1.43-1.31-2.92-2-4.38a2.48 2.48 0 0 1 .15-2.49c4.25-7.28 8.37-14.63 12.7-21.86 2.63-4.4 5.57-8.63 8.38-12.93.21-.32.36-.74.86-.74.09.1.25.18.28.3a64.72 64.72 0 0 0 8.44 18.55A118.46 118.46 0 0 0 269 108.48c.49.54 1 1.06 1.47 1.6.65.75.58 1.09-.33 1.33-3.8 1-7.59 2-11.41 3-6.09 1.47-12.19 2.86-18.28 4.27a7.6 7.6 0 0 0-2.27.76.88.88 0 0 0-.42.81.81.81 0 0 0 .55.72 4.51 4.51 0 0 0 1.41.21c3.62 0 7.23 0 10.84-.26 2.56-.17 5.13-.21 7.69-.31 1.48 0 3-.79 4.39.47-3.93.83-7.85 1.69-11.78 2.47-3.62.71-7.26 1.33-10.89 2a13.4 13.4 0 0 0-1.86.49.75.75 0 0 0-.52.94c.1.51.53.55.93.54a7.9 7.9 0 0 0 1.19-.15c10.35-1.85 20.66-3.88 30.9-6.25 1.09-.26 2.17-.59 3.24-.94a5.25 5.25 0 0 0 1.28-.63.84.84 0 0 0-.18-1.4 2.62 2.62 0 0 0-.9-.28 13.82 13.82 0 0 0-1.93 0c-3.28.2-6.57.38-9.85.64-2.25.18-4.49.32-6.74.3-1.81 0-3.7.84-5.38-.51 3.27-.8 6.55-1.56 9.81-2.41s6.8-1.88 10.19-2.83a3.8 3.8 0 0 0 1.35-.48c.72-.59 1.12-.15 1.6.31 2.09 2 4.14 4 6.28 6a126.07 126.07 0 0 0 26.48 18.71 62.08 62.08 0 0 0 17.35 6.32 1 1 0 0 1 .45.15c.14.07.34.32.11.52Zm57.34-110a137.13 137.13 0 0 1 .65 16.59A112.37 112.37 0 0 1 379 69.32a88.13 88.13 0 0 1-10.1 25.37 130.9 130.9 0 0 1-19.69 26.05c-6.32 6.52-12.92 12.73-19.57 18.91-.7.65-1.52 1.2-2.18 1.89a2.71 2.71 0 0 1-2.62.78 49.21 49.21 0 0 1-8.61-2.2 79.42 79.42 0 0 1-14.92-7.12 138 138 0 0 1-41.42-38.67 74.48 74.48 0 0 1-9-16.67 56.79 56.79 0 0 1-1.76-5.74 3.28 3.28 0 0 1 .62-3.11A136.83 136.83 0 0 1 258.59 58a116.51 116.51 0 0 1 18-15.57A80.3 80.3 0 0 1 298.16 32a177.3 177.3 0 0 1 25.69-6.19c.86-.14 1.75-.13 2.63-.19.48-.48 1.17-.27 1.72-.51a3.73 3.73 0 0 1 2.38 0 1.15 1.15 0 0 1 .61-.34c1.6-.07 3.21-.06 4.8-.23 4-.41 8-.46 12-.6a170.67 170.67 0 0 1 25.47 1.26c1.59.19 3.16.56 4.74.83a1 1 0 0 1 .94.94 25.55 25.55 0 0 0 1.34 4.86 13.79 13.79 0 0 1 .63 2.84Z"></path><path d="M327.77 25.93 332 26a36.53 36.53 0 0 1 11.88 3.47 5.46 5.46 0 0 1 2 1.3.93.93 0 0 1-.39 1.39.84.84 0 0 1-.88-.14c-3.07-2.15-6.6-3.13-10.19-3.9a23 23 0 0 0-6.19-.55c-.51 0-1 0-1.16-.57s.28-.83.7-1.07ZM486.14 471.46l-34.05.19v-1.53a1.18 1.18 0 0 1 .68-1.14 38.94 38.94 0 0 0 6.12-5.05 5.77 5.77 0 0 0 1.69-6.55 13.54 13.54 0 0 1-.8-4 5.59 5.59 0 0 0-1-2.93 26.14 26.14 0 0 1-2.19-5.07 5.43 5.43 0 0 1 .11-4.22 18.58 18.58 0 0 0 .94-2.48 6.58 6.58 0 0 0-1.38-6.52 8.73 8.73 0 0 0-5.09-3 20 20 0 0 0-4.88-.47c-2.11-4.26-4.25-8.48-6.29-12.74-2.89-6-5.81-12-9.08-17.78-1.92-3.43-4-6.79-5.9-10.22-4.23-7.56-8.5-15.1-13-22.47a75 75 0 0 0-11.25-14.09 32.31 32.31 0 0 0-9.85-6.79c-2.21-1-4.46-1.81-6.72-2.62a28.21 28.21 0 0 0-9.69-1.57c-5.52 0-10.82 1.28-16.09 2.68a1.81 1.81 0 0 1-1.95-.34c-2.75-2.44-6.08-3.84-9.48-5.1a16 16 0 0 0-5-.85c-1.52-.06-3.05-.16-4.56-.37-1.14-.16-1.37-.52-1.13-1.62a141.44 141.44 0 0 0 2.16-14c.19-1.68.42-3.35.63-5 .07-.54.36-.75.91-.91a9.38 9.38 0 0 0 5.91-4.22c4-6.93 4-13.87 0-20.78a1.78 1.78 0 0 1-.17-2c.3-.57.54-1.16.83-1.74a18.84 18.84 0 0 0 1.91-8.12 56.68 56.68 0 0 0-.63-9.12 33.58 33.58 0 0 0-3.41-11.47 48.4 48.4 0 0 0-5-7.64 23.05 23.05 0 0 0-9.36-7 54.58 54.58 0 0 0-11.61-3.06 42.66 42.66 0 0 1-8-1.76 12 12 0 0 0-5.94-.57 75.61 75.61 0 0 0-15 3.37 49.56 49.56 0 0 1-5.26 1.7 67.53 67.53 0 0 0-14.43 5.93 22.42 22.42 0 0 0-9.35 8.78c-1.09 1.88-2.14 3.77-3.1 5.71a74.76 74.76 0 0 1-4.27 7.81 16.06 16.06 0 0 0-2.41 6 48.42 48.42 0 0 0-.06 17.72 25.49 25.49 0 0 0 7 13.44 54.6 54.6 0 0 0 5.23 4.63c.43.33 1 .55 1.19 1.26-.56.23-1.14.45-1.7.71a12.53 12.53 0 0 0-3 2 4.39 4.39 0 0 0-1.57 3.63 11.9 11.9 0 0 0 .31 2.13 77 77 0 0 0 3.57 11.22c1 2.55 1.76 5.16 2.5 7.79a16.83 16.83 0 0 1-.43 10.61 90.63 90.63 0 0 1-6.61 13.89c-6.43 11.29-13 22.52-19.13 34-2.74 5.09-5.56 10.13-8.34 15.2-1 1.82-2.07 3.62-3 5.5-1.57 3.25-3 6.54-4.52 9.83a46.67 46.67 0 0 0-2.39 6.55 88.73 88.73 0 0 0-2.59 14.17 35.67 35.67 0 0 0 3.14 19.47c.27.58.57 1.16.8 1.75.13.34 0 .65-.42.66h-7.95c-.64 0-.74-.47-.76-1a27 27 0 0 0-5.1-14.56 80.93 80.93 0 0 0-6.92-8.65c-1.48-1.58-2.89-3.23-4.28-4.89a8.27 8.27 0 0 1-2-5.53c0-4.74-.14-9.48.11-14.21.07-1.44.24-2.88.34-4.32a1 1 0 0 1 1.06-1 11.42 11.42 0 0 0 1.43-.19 8.81 8.81 0 0 0 3.13-1.18c1.48-1 1.58-2.43.25-3.61a7.48 7.48 0 0 0-2.75-1.44 27 27 0 0 0-9.75-1.1 16.73 16.73 0 0 0-4.28.64 5.81 5.81 0 0 0-2.5 1.38 1.93 1.93 0 0 0-.12 2.62 5 5 0 0 0 1.92 1.41 14.94 14.94 0 0 0 3.2 1 .91.91 0 0 1 .83 1c-.08 2.41-.06 4.82-.28 7.22-.32 3.59-.83 7.17-1.24 10.76a20.15 20.15 0 0 1-6.28 12.92 57.9 57.9 0 0 0-4.69 4.84 25.68 25.68 0 0 0-6.48 16.7c0 1.15-.11 1.26-1.22 1.27H154.8a3 3 0 0 1-2.66-1.26 80.25 80.25 0 0 1-5-6.48c-1.47-2.3-3.06-4.52-4.75-6.67a22.69 22.69 0 0 1-1.76-2.59 9.09 9.09 0 0 1-1.43-4.29 106.18 106.18 0 0 1 .18-11.56c.38-4.64.88-9.27 1.34-13.9.14-1.35.32-2.69.47-3.95a2.09 2.09 0 0 1 1.48-.3c1.37 0 2.74 0 4.1-.08a1.42 1.42 0 0 0 1.55-1.48 9.87 9.87 0 0 0-.19-3.11 1.86 1.86 0 0 0-1.61-1.56 6.19 6.19 0 0 0-1-.06h-14.46a22.17 22.17 0 0 0-3.34.37c-1.25.2-1.59.67-1.61 2v1.69c0 1.77.24 2 2.1 2.19 1.19.12 2.38.21 3.43.3a1.47 1.47 0 0 1 .17 1.33 21.78 21.78 0 0 0-.46 5.75 150 150 0 0 1-1.31 22.1 11.61 11.61 0 0 1-4.3 8.06c-2.06 1.66-4.09 3.37-6.18 5-3.24 2.51-6.54 4.93-9.75 7.48a3.74 3.74 0 0 1-3 1.1 4.43 4.43 0 0 0-.73 0c-55.5 0-21 .09-76.51.12-.79 0-1.59-.07-2.39-.12v1.93l79.2-.44a10 10 0 0 0-.76 1.58c-1 3.2-.21 4.85 1.77 6.42a9 9 0 0 0 2.52 1.39c1.2.42 2.42.85 3.66 1.15a125 125 0 0 0 14 2.39c3 .4 6.07.63 9.11.84a91 91 0 0 0 13 .09 11.46 11.46 0 0 0 8.46-4.48 4.85 4.85 0 0 0 .56-5.42 11.66 11.66 0 0 0-1.93-2.75c-.43-.47-.88-.93-1.3-1.42v-.07l12.32-.07v.09c.15.46.23.94.36 1.4a18.89 18.89 0 0 0 3.12 6.46 25.32 25.32 0 0 0 12.4 8.74c5.63 1.81 11.27 1.39 16.84-.23a14.15 14.15 0 0 0 9.05-8.08 24.45 24.45 0 0 0 1.92-6.43 10.57 10.57 0 0 1 .47-2.2l73.27-.41H299a.37.37 0 0 1 .23.07c.06 0 .07.13.11.21.1.53-.31.87-.53 1.28-1.16 2.11-2.36 4.19-3.52 6.3a26.45 26.45 0 0 0-1.53 3c-.69 1.73-.8 3.47.63 4.93A2.83 2.83 0 0 1 295 491a3.71 3.71 0 0 0 4.05 3.29c.55 0 1.09-.15 1.73-.24a3.48 3.48 0 0 0 3.62 2.95c.5 0 .65.22.74.69.5 2.5 1.54 3.51 4 3.7a15.41 15.41 0 0 0 10.27-2.69c2.64-1.83 2.42-2.92.9-4.93-.53-.68-1.41-.62-2.42-1.15a25.21 25.21 0 0 0 3.27 1c1.71.4 3.42.86 5.14 1.2 1.49.29 3 .39 4.51.69a17.07 17.07 0 0 0 7.39-.29c3.13-.75 6.13-1.87 9.19-2.82a16.81 16.81 0 0 1 6.88-.7c4.07.43 8.13 1 12.2 1.39 6.22.65 12.45 1.27 18.7 1.72 8.09.57 16.19 1 24.29 1.33 2 .09 4 .1 6 .22a177.48 177.48 0 0 0 19 .18 29.54 29.54 0 0 0 10.28-2.3 9.69 9.69 0 0 0 5.88-6.84 42.16 42.16 0 0 0 1.46-11.18c-.05-3.36-.5-2.88 2.94-2.89 32.28-.07-.44-.12 31.85-.18 1 0 1.91-.12 2.87-.18v-1.45c-1.2-.03-2.4-.06-3.6-.06Zm-355-51a21.4 21.4 0 0 1-2.39-.2.89.89 0 0 1-.9-.92v-.48c-.08-1.23-.07-1.27 1-1.39a29.31 29.31 0 0 1 3.1-.19c4.4 0 8.8.09 13.19.15 1.24 0 1.34.12 1.4 1.38v.48c0 .55-.21.91-.81.94s-1.27.07-1.91.07h-6.24v.16c-2.09 0-4.25.02-6.41-.01Zm-7.88 43.29c1-.88 2.06-1.78 3.15-2.6a14.16 14.16 0 0 0 5.59-10.29c.63-5.82 1.06-11.66 1.23-17.51a31.43 31.43 0 0 0-.11-3.36 26.46 26.46 0 0 1 .41-6.47c.16-.9.52-1.17 1.45-1.26l1.44-.1c3.36-.18 3.11-.73 2.8 2.94-.43 5-1 10-1.45 15.08-.29 3.2-.27 6.41-.33 9.61a13.6 13.6 0 0 0 2.74 8.53c1.14 1.56 2.3 3.09 3.45 4.63a3 3 0 0 1 .7 1.41c-7.31-.2-14.46.32-21.62.42-.14-.68.29-.78.58-1.04Zm33.77 16.12a3.4 3.4 0 0 1-.39 4.21 9.78 9.78 0 0 1-6.63 3.51 55.69 55.69 0 0 1-10.33.13c-4.56-.3-9.14-.51-13.66-1.21-3.72-.58-7.46-1.08-11.14-1.91a33.21 33.21 0 0 1-4.36-1.33 8.24 8.24 0 0 1-2.46-1.48 3.16 3.16 0 0 1-1-3.47 6.9 6.9 0 0 1 1.32-2.55 19.75 19.75 0 0 1 2.12-2.17c.32-.29.66-.58 1-.85 2.55-1.95 5.12-3.87 7.66-5.82a3 3 0 0 1 2-.63h11.79v-.05c1.61-.08 3.21-.23 4.81-.24 2.49 0 5 .08 7.46.11a1.16 1.16 0 0 1 1 .62 65.72 65.72 0 0 0 5.26 6.61c.25.27.49.55.73.82.92 1 1.83 2 2.79 3a11.79 11.79 0 0 1 2.06 2.69Zm27.5-63.72a16.45 16.45 0 0 1-2-.86.88.88 0 0 1-.56-.72c0-.39.29-.58.55-.69a9 9 0 0 1 1.81-.63 24.92 24.92 0 0 1 12.13.54 9.36 9.36 0 0 1 2 .89 1.19 1.19 0 0 1 .58.71c0 .3-.25.55-.55.69a10.64 10.64 0 0 1-3.95 1c-1 .07-1.92 0-2.88 0a19.46 19.46 0 0 1-7.1-.94Zm-13.95 48.08c.24-.68.52-1.35.81-2a24.86 24.86 0 0 1 5-7.34c1.28-1.32 2.59-2.62 3.91-3.91a20.86 20.86 0 0 0 6.25-12.43 120 120 0 0 0 1.59-18.44 2.41 2.41 0 0 1 .11-.93.76.76 0 0 1 .52-.43c1 0 2.07.14 3.11.23.41 0 .51.34.49.68-.09 1.92-.15 3.85-.29 5.77a125.9 125.9 0 0 0 0 13.46 9.74 9.74 0 0 0 2 5.55 75.44 75.44 0 0 0 5.06 5.81 76 76 0 0 1 7.08 9.1 37.89 37.89 0 0 1 1.78 3.35 1 1 0 0 1 .09.92c-.38.37-.88.24-1.34.27-2.16.12-4.32.25-6.49.33-7.21.27-14.42.65-21.64.67-2.4 0-4.81.2-7.21.3-.78.03-1.04-.28-.8-.97Zm37.56 18.44a12.88 12.88 0 0 1-8.8 7.55 28.23 28.23 0 0 1-9.53 1.05 22.63 22.63 0 0 1-17.33-9.54 16.86 16.86 0 0 1-2.9-13.73c.24-1.21.27-1.25 1.6-1.28 4.25-.09 8.51-.1 12.76-.25 8.09-.28 16.19-.63 24.28-1a.93.93 0 0 1 1.08.7 17.32 17.32 0 0 1 .92 6.07 24.17 24.17 0 0 1-2.05 10.42Zm113-233.73c9.06 2.79 15.77 8 18.37 17.55a27.19 27.19 0 0 1 .9 6.66c-.06 1-.1 2.08-.16 3.12a2.63 2.63 0 0 1-.57 1.54.5.5 0 0 1-.63.18c-.19-.11-.44-.31-.46-.49a5.87 5.87 0 0 1 .09-1.18 25.13 25.13 0 0 0-2.14-13.32 20.83 20.83 0 0 0-7.44-8.61 28.56 28.56 0 0 0-8.4-4c-.48-.14-.92-.31-1-.88s.73-.79 1.42-.58Zm-1.56 37.82a31.17 31.17 0 0 1 3 .87 1.33 1.33 0 0 0 1.35-.17c.35-.33 0-1.32 1-1a42.45 42.45 0 0 0 5.75 5.46 28.72 28.72 0 0 0 4.94 3c.65.3 1.35.52 1.3 1.48a.6.6 0 0 0 .67.56.78.78 0 0 0 .73-.79v-1.2a8.49 8.49 0 0 1 1.27-3.85 3.45 3.45 0 0 1 1.56-1.44 2.08 2.08 0 0 1 2.46.27 5.6 5.6 0 0 1 1.49 1.86c2.93 6.17 2.85 12.24-.71 18.15a7.39 7.39 0 0 1-5.52 3.44c-1.25.2-1.33.26-1.44 1.48q-.68 7.92-2 15.75a81.65 81.65 0 0 1-3.65 14.68 32.21 32.21 0 0 1-4.91 9.06 22.85 22.85 0 0 1-9.43 7.25 11 11 0 0 1-4 .81 23 23 0 0 1-10.74-2.18 50.71 50.71 0 0 1-7.7-4.43 43.09 43.09 0 0 1-7.75-7.87 119.56 119.56 0 0 1-11.06-16.61 89.43 89.43 0 0 1-5.91-14.19 64.89 64.89 0 0 1-3.12-14.55 52.44 52.44 0 0 1-.05-7 2.6 2.6 0 0 1 .47-1.59 4 4 0 0 1 1.68.86 29.84 29.84 0 0 0 6.38 2.77c.46.15 1 .31 1.36-.09s.22-.89 0-1.35a.33.33 0 0 1 .1-.54 31.11 31.11 0 0 0 5 2.27 16 16 0 0 0 8.06.67c.93-.2 2.08-.23 2.38-1.3s-.65-1.57-1.21-2.23-1-1-1.52-1.52c.08-.61.59-.66 1-.85a19.15 19.15 0 0 1 11.31-1.13c1.19.19 2.35.5 3.53.72a1 1 0 0 0 1.08-.38 1.14 1.14 0 0 0-.05-1.35 16.63 16.63 0 0 0-2.53-2.76c.24-.63.7-.45 1.05-.46a26 26 0 0 1 7.31 1.33c.61.17 1.21.42 1.82.61s1.12.35 1.55-.17a1.51 1.51 0 0 0 .05-1.6c-.18-.44-.44-.85-.7-1.36 1.59-.27 2.94.31 4.33.6Zm-20.39 73.62a2.63 2.63 0 0 1-1.39.84c-.3.1-.58.26-.88.36a44.2 44.2 0 0 0-17.39 11.19c-.91 0-.74-.53-.54-1.08a26.08 26.08 0 0 1 2.6-6.16 4.74 4.74 0 0 1 3.08-2.47c.85-.22 1.65-.61 2.49-.86a5.75 5.75 0 0 0 4.32-5.19c.07-.47.09-.94.15-1.52a9.6 9.6 0 0 1 2.37 1.61c.85.59 1.7 1.2 2.57 1.76s1.67.97 2.6 1.51Zm10.1-99c.3-.11.61-.18.71-.21a11.19 11.19 0 0 1 6.59 2.48 2.91 2.91 0 0 1 1.2 1.74.63.63 0 0 1-.39.77.77.77 0 0 1-.65-.1c-.37-.31-.63-.73-1-1a9.43 9.43 0 0 0-4.68-2.27c-.62-.11-1.24-.26-1.85-.42-.11 0-.2-.24-.23-.37a.49.49 0 0 1 .28-.65Zm1.29 11.17a3.53 3.53 0 0 1 .6-.41.7.7 0 0 1 .87.09.59.59 0 0 1 .06.86 11.57 11.57 0 0 1-1.58 1.47 42.15 42.15 0 0 1-16.73 7.57c-1.74.34-3.47.65-5.22.91a15.37 15.37 0 0 1-2.09.11 22.54 22.54 0 0 1-8.12-1.18c-1-.37-1.37-.86-1.06-1.28.46-.63 1-.26 1.51-.09 4.24 1.39 8.51 1.16 12.85.39a42.55 42.55 0 0 0 18.89-8.47Zm-50.8 27.29c-.33.36-.91.19-1.39-.42a12.6 12.6 0 0 1-2.37-5.5 1.41 1.41 0 0 1 .51-1.17.66.66 0 0 1 .84.14c0 .08.07.15.08.22a11.2 11.2 0 0 0 2.19 5.45c.25.35.55.79.12 1.25Zm2-16.44a5.69 5.69 0 0 1-.17 1.18.71.71 0 0 1-.54.36.71.71 0 0 1-.55-.36 4.06 4.06 0 0 1-.24-1.15 15.59 15.59 0 0 1 .68-5 35 35 0 0 1 12.93-19.71 51.89 51.89 0 0 1 20.5-9.61 27.51 27.51 0 0 1 5.72-.68 13.25 13.25 0 0 1 1.67.1c.56.08 1 .62.82 1s-.61.4-1 .39l-1-.06a35.94 35.94 0 0 0-10.1 1.9 47.44 47.44 0 0 0-19.61 11.73 32.07 32.07 0 0 0-9.16 19.88Zm-19.25 188.2a2.84 2.84 0 0 1-2.64 1.25c-5.07-.05-10.13 0-15.19 0-1.74 0-1.76 0-2.48-1.64a38.74 38.74 0 0 1-3.08-22.09 93.92 93.92 0 0 1 2-10.63 62.1 62.1 0 0 1 3.18-8.81 181.42 181.42 0 0 1 8.31-16.55c4.73-8.29 9.14-16.77 13.79-25.1 4.06-7.29 8.28-14.49 12.39-21.75a84.93 84.93 0 0 0 6.81-14.59 17.75 17.75 0 0 0 .45-9.95 59.72 59.72 0 0 0-2.6-8.51 96.683 96.683 0 0 1-3.05-8.87c-.18-.62-.4-1.23-.52-1.85-.72-3.75-.45-4.53 3.15-6.56a17.34 17.34 0 0 1 2.45-1 1.6 1.6 0 0 1 1.16 0 2.49 2.49 0 0 1 1.74 1.76c.8 2.52 1.68 5 2.64 7.48a63.1 63.1 0 0 0 6 11.8 3.64 3.64 0 0 1 .67 3.13 5.72 5.72 0 0 0 .28 2.61c.52 2.6 1 5.2 1.46 7.81.25 1.47.68 3-.86 4.2-.11.08-.07.47 0 .67a.71.71 0 0 0 .79.4 2 2 0 0 0 1.49-1.1 5 5 0 0 0 .42-3.51c-.4-2.21-.83-4.41-1.23-6.62-.07-.4-.1-.8-.15-1.2s-.46-1 .46-.95c2.84 3.79 5.46 7.75 8.74 11.19a2.82 2.82 0 0 1 .84 2.16v1.45a4.47 4.47 0 0 1-3.42 4.42c-.92.28-1.82.62-2.74.9a5.9 5.9 0 0 0-3.34 2.6 22.63 22.63 0 0 0-2 3.87 259.45 259.45 0 0 0-9.36 27.54c-.88 3.33-1.43 6.75-2.11 10.13q-2 10-4 20.06a46.72 46.72 0 0 1-1.7 5.51 120.77 120.77 0 0 1-8.7 19.8c-2.77 5-4.81 10.32-7.2 15.49-.37.8-.68 1.63-1.11 2.4s-1.15 1.79-1.74 2.65Zm207.85 6.89a38.27 38.27 0 0 1-1.57 10 7.65 7.65 0 0 1-4.21 5 26.34 26.34 0 0 1-8.56 2.26 102.66 102.66 0 0 1-15.88.2c-5.38-.23-10.75-.48-16.13-.68q-10.83-.4-21.63-1.33c-5.68-.5-11.35-1.05-17-1.6-1-.09-1.9-.31-2.86-.42-2.94-.33-5.89-.67-8.84-.95a16.41 16.41 0 0 0-6.41.8c-2.68.82-5.36 1.64-8 2.51a19.4 19.4 0 0 1-10.22.47c-2.2-.48-4.4-.9-6.57-1.48a17.8 17.8 0 0 1-5.29-2.26 3.58 3.58 0 0 0-1.07-.49.6.6 0 0 0-.75.45 4.59 4.59 0 0 0-.1 1.18 6.3 6.3 0 0 1-2 5 1.74 1.74 0 0 0-.31.36.67.67 0 0 0 .07.87.75.75 0 0 0 .88.2 3.06 3.06 0 0 0 1.27-1.07 3.87 3.87 0 0 1 3.45-1.32.87.87 0 0 1 .9.65.88.88 0 0 1-.26.88 8.65 8.65 0 0 1-1.11.91 14.39 14.39 0 0 1-8 2.23c-3.08-.07-3.76-1-2.91-3.92.38-1.3.85-2.59 1.36-3.85.84-2.08 1.74-4.14 2.61-6.21.21-.52.43-1 .61-1.57a.91.91 0 0 0-.25-1.08c-.27-.23-.92.08-1.14.58-1.41 3.24-2.81 6.47-4.18 9.72a3.12 3.12 0 0 1-1.21 1.73 1.53 1.53 0 0 1-2.38-1 3.88 3.88 0 0 1 .23-2.13c1.27-3.29 2.47-6.61 4-9.8.59-1.23 1.21-2.44 1.87-3.63.55-1 1.14-1.94 1.76-2.87a2.23 2.23 0 0 1 2.59-1.26.65.65 0 0 0 .86-.6.84.84 0 0 0-.67-.86 2.8 2.8 0 0 0-3.1.73 16.85 16.85 0 0 0-1.83 2.16 48.59 48.59 0 0 0-4.39 8.55c-.82 2.09-1.66 4.17-2.45 6.27a2.82 2.82 0 0 1-2.07 1.82 2.18 2.18 0 0 1-2.77-2.15 6.37 6.37 0 0 1 .4-2.36c.4-1 .74-2 1.23-2.87 1.56-2.89 3.14-5.78 4.81-8.61a28.55 28.55 0 0 1 2.68-3.7c1.15-1.34 2.41-2.6 4.4-2.58a.61.61 0 0 0 .58-.65c0-.38-.24-.56-.55-.69a2.89 2.89 0 0 0-2.54.33 10.61 10.61 0 0 0-2.83 2.21 25.18 25.18 0 0 0-3.31 4.43c-.57 1-1.19 1.88-1.79 2.82a7.71 7.71 0 0 1-1.16 2.33 57.2 57.2 0 0 0-2.93 6 .71.71 0 0 1-.46.44c-.48 0-.37-.42-.39-.68a3.54 3.54 0 0 1 .4-2.08 76.91 76.91 0 0 1 4-7c1.76-3 3.48-6.13 5.29-9.15a5.64 5.64 0 0 1 3.32-3 5 5 0 0 1 2.36-.17c4.47 1 8.95 1.81 13.36 3.05a111 111 0 0 0 15.92 3.68 36.17 36.17 0 0 0 8.88.36 15.72 15.72 0 0 1 2.17 0c5.62 0 11.23-.36 16.83-.89 7.59-.71 15.19-1.3 22.79-1.94h.72c8.1-.35 16.21-.64 24.31-1.05a67.17 67.17 0 0 0 16.08-2.79 2.87 2.87 0 0 0 1.48-.72.65.65 0 0 0 .09-.87.94.94 0 0 0-.56-.37 5.25 5.25 0 0 0-1.16.26 40 40 0 0 1-6.87 1.58 12.59 12.59 0 0 1 7.06-7.11 43.14 43.14 0 0 1 8.55-2.41 61.33 61.33 0 0 1 8.87-.82c.82 0 1 .12 1 .94.45 6.96.79 14.01.63 21.08Zm.19-23.77a50.81 50.81 0 0 0-18.69 2.86 18.36 18.36 0 0 0-4.87 2.58 9.59 9.59 0 0 0-2.74 3 4.92 4.92 0 0 1-2.37 2.61 6.73 6.73 0 0 1-4 .4c-3.59-.88-3.75-.71-3.31-4.17a8.6 8.6 0 0 0-.5-4 34.35 34.35 0 0 0-4.17-8.38c-1.86-2.6-2.11-3.35.46-6.28 1.43-1.62 3.07-3.06 4.6-4.6a15.62 15.62 0 0 0 1.29-1.41.71.71 0 0 0 0-.66.65.65 0 0 0-.84-.24 2 2 0 0 0-.59.4c-1.82 1.7-3.65 3.39-5.44 5.12a12.15 12.15 0 0 0-2 2.69c-.34.57-.59.6-1.14.18a16 16 0 0 1-5.71-9 24.57 24.57 0 0 1-.56-5.74c0-1.2 0-2.41-.08-3.61a16.25 16.25 0 0 0-2.56-7.69c-.74-1.14-1.52-2.26-2.29-3.39a16 16 0 0 1-2.93-6.79c0-.23-.11-.47-.15-.7-.08-.51-.24-1-.85-1s-.73.55-.63 1.34a16 16 0 0 0 1 4 22.91 22.91 0 0 0 2.41 4.43c.68 1 1.38 2 2 3a14.4 14.4 0 0 1 2.33 7.73 47.33 47.33 0 0 0 .32 6.73 17.67 17.67 0 0 0 7 12.21 4.73 4.73 0 0 1 1.83 2.12 9.83 9.83 0 0 0 1.24 2.05 35.22 35.22 0 0 1 3.81 7.49 8.5 8.5 0 0 1 .52 4.71c-.47 2.67.06 3.47 2.65 4.59a1.59 1.59 0 0 1 .34.3 1 1 0 0 1-.83.38c-.8 0-1.61.11-2.41.14-8.26.36-16.53.64-24.79 1.1-4.73.26-9.44.81-14.16 1.21-6.32.54-12.63 1.21-19 1.38-2.89.08-5.78.2-8.67.24a44.33 44.33 0 0 1-10.27-1.17c-4.46-1-8.87-2.19-13.28-3.41-3.85-1.07-7.81-1.82-11.74-2.58a6.41 6.41 0 0 0-6.75 2.7c-.87 1.17-1.52 2.45-2.29 3.67a.48.48 0 0 1-.8 0 10.13 10.13 0 0 1-1.57-4 22.37 22.37 0 0 1-.36-6 20.71 20.71 0 0 0-2-11.23c-.39-.79-.68-1.63-1-2.45a13.29 13.29 0 0 1-.82-6.61 32.4 32.4 0 0 0-1.46-15.43 70.58 70.58 0 0 0-2.77-7.16 16.23 16.23 0 0 1-1.75-7.19 22.86 22.86 0 0 0-2.07-8.61 4.36 4.36 0 0 0-.23-.42.77.77 0 0 0-1-.46.65.65 0 0 0-.41 1c1.61 3.33 1.91 6.92 2.17 10.53a16.43 16.43 0 0 0 1.87 6.18 39.3 39.3 0 0 1 2 4.89 7.8 7.8 0 0 1 .17 4.73 41.34 41.34 0 0 1-3.88 9.56 56.41 56.41 0 0 1-8.24 11.24 54.15 54.15 0 0 1-6.29 6.29 1.07 1.07 0 0 0-.53.76c0 .24-.05.49.2.64s.3.18.43.14a2.47 2.47 0 0 0 .87-.36 24.34 24.34 0 0 0 2.22-1.84 91 91 0 0 0 6.91-7.38 50.23 50.23 0 0 0 8.85-15.08c.11-.3.26-.59.39-.88s.29-.76.82-.49a33.16 33.16 0 0 1 .19 7c-.44 6.53-.71 6.36 2.08 12.83a19.53 19.53 0 0 1 1.62 8.92 28.48 28.48 0 0 0 .27 7.2 14 14 0 0 0 1.43 4.07c.55 1 .39 1.16-.8 1.19h-1.2l-50.61.06h-1.69a.46.46 0 0 1-.35-.7c2.55-4 4.08-8.52 6-12.82 1.18-2.54 2.42-5.07 3.76-7.53a146.91 146.91 0 0 0 10.17-24.14 18.85 18.85 0 0 0 .5-2.1c1.3-6.53 2.61-13.06 3.89-19.6.9-4.64 1.79-9.29 3.08-13.85a53.82 53.82 0 0 1 6.35-14.49c3.39-5.32 8.22-8.95 13.63-11.92 1.75-1 3.63-1.68 5.46-2.5a14.17 14.17 0 0 0 2.63-1.16 1.9 1.9 0 0 1 2.36-.19 20.5 20.5 0 0 0 6.33 2c.18.63-.27 1-.56 1.3-3.13 3.88-3.69 8.38-2.59 13a17 17 0 0 1-.16 9.4A16.77 16.77 0 0 0 308 403c.46.63.83 1.55 1.74 1.52s.94-1.12 1.23-1.82a14.32 14.32 0 0 1 3.61-5.06 20.59 20.59 0 0 1 3.73-2.63 16.33 16.33 0 0 0 1.46-.85c.31-.22.61-.52.4-1s-.63-.54-1.23-.29a18.64 18.64 0 0 0-7.57 5.78c-.24.31-.43.68-.68 1-.5.61-.63 1.47-1.34 1.93-1-.43-1.19-1.42-1.59-2.24a15.24 15.24 0 0 1-1.07-10.78c.28-1.09.57-2.17.92-3.24a8.65 8.65 0 0 0 .06-5c-.16-.62-.34-1.23-.5-1.85a16.31 16.31 0 0 1 .25-9 9.24 9.24 0 0 1 4.09-5.18.79.79 0 0 1 .67-.05.71.71 0 0 1 .17.62 42.48 42.48 0 0 0-.66 6.46 15 15 0 0 0 2.11 8 20.31 20.31 0 0 0 7.19 7.31c.89.54 1.8 1.06 2.71 1.56a5.76 5.76 0 0 1 3 4.39c.32 1.9.63 3.81 1 5.69a21.61 21.61 0 0 0 4.28 9.06 10.06 10.06 0 0 0 2.62 2.46 1.11 1.11 0 0 0 1.51-.27 20.91 20.91 0 0 0 2.92-5.77A8.56 8.56 0 0 0 339 399c-.28-.92-.61-1.82-.91-2.74a5 5 0 0 1 .23-4.18 5.73 5.73 0 0 0 .59-4.42 3.67 3.67 0 0 1 .85-3.57 16.55 16.55 0 0 0 2.21-3.71 12.38 12.38 0 0 0 1.22-7.25 9.75 9.75 0 0 1 .51-4.72 17.79 17.79 0 0 0-1.55-15.3 51.79 51.79 0 0 0-4.34-6.06 1.82 1.82 0 0 0-1.1-.88 1.14 1.14 0 0 0-.65.13c-.27.12-.22.41-.19.64a3.24 3.24 0 0 0 .85 1.42c1 1.43 2.12 2.83 3.13 4.28a17.61 17.61 0 0 1 2.81 6.33 15.31 15.31 0 0 1-.44 8.54 11.08 11.08 0 0 0-.66 6.11 9.58 9.58 0 0 1-1 5.85 17.92 17.92 0 0 1-2.34 3.92 4.51 4.51 0 0 0-1 4.26 4.94 4.94 0 0 1-.5 4 5.21 5.21 0 0 0-.43 4.41 22.53 22.53 0 0 0 .72 2.29 7.77 7.77 0 0 1-.44 7.17c-.34.63-.7 1.25-1.09 1.86s-.65.54-1.14.06a15.35 15.35 0 0 1-2.23-2.84 20.92 20.92 0 0 1-3-7.83c-.27-1.66-.61-3.31-.91-5a6.81 6.81 0 0 0-3.32-4.79c-.95-.59-1.93-1.14-2.9-1.7a18.76 18.76 0 0 1-6-5.53 14.91 14.91 0 0 1-2.77-9.05 52 52 0 0 1 .54-5.27 1.53 1.53 0 0 1 1.47-1.55 14.53 14.53 0 0 0 2.54-.7c3.07-1 5.48-3 7.8-5.09 3.84-3.5 6.11-8 7.87-12.79a41.5 41.5 0 0 0 2-6.92.62.62 0 0 1 .87-.55 26.4 26.4 0 0 0 6.2.72 10.16 10.16 0 0 1 2.13.33 29.23 29.23 0 0 1 9 3.93 11.54 11.54 0 0 1 3.9 4.19 25.25 25.25 0 0 1 2.62 17c-.72 4.35-1.74 8.65-2.7 13a57.42 57.42 0 0 0-1.45 15.25c0 .67-.27.84-.89.57l-.21-.13c-3.48-2.07-7.35-3.14-11.18-4.31a2.5 2.5 0 0 0-.93-.13 1 1 0 0 0-.52.42c-.17.22-.05.47.1.66a2.26 2.26 0 0 0 1.18.78c.92.29 1.82.64 2.75.86a34.43 34.43 0 0 1 8.81 3.8c.49.28 1 .58 1.47.82a.9.9 0 0 0 1.33-1.06 20.64 20.64 0 0 1-.31-3.59 50.69 50.69 0 0 1 1.17-11.72c.94-4.56 1.8-9.13 2.88-13.66a30.4 30.4 0 0 0-.34-14.07 21.79 21.79 0 0 0-2.61-5.93c-.32-.54-.17-.92.36-1.12l.23-.07c6.36-1.39 12.73-2.74 19.31-2a22.48 22.48 0 0 1 4 .94 62.7 62.7 0 0 1 7.87 3 31.33 31.33 0 0 1 9.21 6.47 73.83 73.83 0 0 1 10.91 13.74c4.38 7.11 8.53 14.35 12.57 21.65 1.25 2.25 2.59 4.44 3.89 6.65 4 6.79 7.52 13.81 10.93 20.89 1.95 4.05 4 8.06 6 12.08.52 1.05.47 1.1-.72 1.34-1.73.34-3.46.69-5.17 1.12-1.55.38-3 1-4.69.91a1.63 1.63 0 0 0-.87.35.74.74 0 0 0-.31.84.78.78 0 0 0 .65.62 6 6 0 0 0 2.37-.26c2.65-.65 5.29-1.36 8-1.86a18.6 18.6 0 0 1 8.13.15 7 7 0 0 1 3.76 2.45 4.48 4.48 0 0 1 .94 4.71c-.34.9-.65 1.8-1 2.7a6.36 6.36 0 0 0-.12 4.7 26.32 26.32 0 0 0 2.32 5.53 5.69 5.69 0 0 1 .91 2.71 18.9 18.9 0 0 0 .92 4.47 3.57 3.57 0 0 1-1.64 4.53c-.15-.06-.21-.14-.19-.24s.06-.16.1-.16a7.9 7.9 0 0 0-.28-4 4.7 4.7 0 0 0-3.38-3.13 13.46 13.46 0 0 0-3.14-.55Zm1.43 11.12c-.17-1.91-.32-3.82-.45-5.37v-2.05c-.1-1.77-.05-2.16 2-1.5a2.63 2.63 0 0 1 1.85 2 5.67 5.67 0 0 1-.37 4.2 9.44 9.44 0 0 1-2.3 3 .44.44 0 0 1-.73-.28Z"></path><path fill="#010101" d="M226.66 348.62a8 8 0 0 0-1.95-2.43c-1.8-1.54-3.28-1.58-5.18-.12-.7.54-1.34 1.15-2 1.73a4.16 4.16 0 0 1-3.57 1 10 10 0 0 1-4.15-1.79 19.9 19.9 0 0 0-4.45-2.34c-2.61-.91-6.29-.21-7.78 2.58a3.79 3.79 0 0 1-.45.54c-1.06 2.78 0 5 2 6.92a29.28 29.28 0 0 1 3.48 4 4.37 4.37 0 0 1 .94 2.42 1.73 1.73 0 0 1-1 1.76 5.08 5.08 0 0 1-3.5.53c-1.08-.27-2.18-.53-3.23-.9a10.28 10.28 0 0 0-7.94.34 23.76 23.76 0 0 1-5.44 1.85c-.31.06-.63.09-1 .15a9.49 9.49 0 0 1 .58-7.69 15.11 15.11 0 0 1 8.62-7.59c.68-.24 1.36-.48 2-.68a17 17 0 0 0 3.94-1.71c.82-1.34 1.39-2.73.78-4.32a7.42 7.42 0 0 0-5-4.84 8.72 8.72 0 0 0-8.85 2.34 21.22 21.22 0 0 0-2.26 2.81 6.25 6.25 0 0 1-4.86 2.73c-.56 0-1.12.09-1.68.14a7.92 7.92 0 0 0-6.93 5.19 29.14 29.14 0 0 0-1.1 3.43 11.64 11.64 0 0 0 .35 7.1c.88 2.72 2.48 4.21 5.66 4.29 2.08.05 4.15.35 6.23.54a.74.74 0 0 1 .74.77 16 16 0 0 1-.19 3.59 16.39 16.39 0 0 0-.34 4.79 4.89 4.89 0 0 0 3.19 4.17 6.64 6.64 0 0 0 2.57.57 19.7 19.7 0 0 0 3.6-.25 20.8 20.8 0 0 1 4.31-.36 4.86 4.86 0 0 1 4.52 3.06c.71 1.51.48 2.67-.55 3.5A14.71 14.71 0 0 0 193 391a3.69 3.69 0 0 1-3.17 1.89 7.27 7.27 0 0 1-2.62-.23 21.73 21.73 0 0 1-5.92-2.6 6.7 6.7 0 0 1-1-.71 1.13 1.13 0 0 1-.23-1.53c.29-.47.71-.86 1-1.33a.75.75 0 0 0-.08-.66.77.77 0 0 0-.61-.31 2.62 2.62 0 0 0-1.08.47 3.08 3.08 0 0 0 .07 4.81 22.63 22.63 0 0 0 6.42 3.22 10.38 10.38 0 0 0 3.78.54 5.29 5.29 0 0 0 4.68-2.46c1.16.09.53.81.46 1.34-.17 2.89.19 5.76.29 8.65a1.39 1.39 0 0 0 .16.68.82.82 0 0 0 .56.34.72.72 0 0 0 .56-.33 3.22 3.22 0 0 0 .22-1.15c0-1.6-.06-3.21-.13-4.81a22.24 22.24 0 0 1 .28-5c.36-1.89 1.19-2.55 3.11-2.73 1.59-.14 3.19-.26 4.78-.46a7.3 7.3 0 0 0 6-4.22c.28-.57.59-1.14.88-1.7a5.12 5.12 0 0 1 3.2-2.73 12.1 12.1 0 0 0 7.54-6.62c1.38-2.8 3-5.47 4.51-8.2 3.11-5.49 2.79-11.04 0-16.54Zm-47.46 14.17c.22 2.35.13 2.27-2.13 1.94a43.2 43.2 0 0 0-4.55-.41 4 4 0 0 1-4-3.21 13.84 13.84 0 0 1-.53-3.91 13.23 13.23 0 0 1 1.8-6.3 5.94 5.94 0 0 1 5.29-3.23h1a8.11 8.11 0 0 0 6.38-3.33c.58-.77 1.12-1.57 1.75-2.3a7.35 7.35 0 0 1 6.66-2.59 5.48 5.48 0 0 1 4.69 3.62 2.37 2.37 0 0 1-1.48 3.49c-1 .4-2.1.78-3.18 1.09a17.09 17.09 0 0 0-8.47 5.65 12.4 12.4 0 0 0-3.23 9.49Zm45.87 1.86c-1.48 2.57-3 5.12-4.29 7.8a10.73 10.73 0 0 1-6.83 6 6.42 6.42 0 0 0-3.8 3.14c-.43.77-.82 1.56-1.23 2.35a5.4 5.4 0 0 1-3.69 2.83 19.48 19.48 0 0 1-3.81.49c-1 .05-1.91.14-3.25.24a4.36 4.36 0 0 0 .82-5 7.07 7.07 0 0 0-4.18-4.06 9.17 9.17 0 0 0-4.29-.28c-1.35.17-2.71.32-4.06.52a7.24 7.24 0 0 1-2.86-.19 3.46 3.46 0 0 1-2.87-3.4 7.73 7.73 0 0 1 .08-1.92 27.68 27.68 0 0 0 .52-5.74.82.82 0 0 1 .77-1 27.39 27.39 0 0 0 6.61-2.17 8.41 8.41 0 0 1 6.1-.32c.91.29 1.83.58 2.76.81a7.9 7.9 0 0 0 5.42-.28 3.62 3.62 0 0 0 2-4.79 7.63 7.63 0 0 0-1.41-2.5c-.92-1.12-1.9-2.18-2.85-3.26-.48-.54-1-1.06-1.45-1.61-2-2.32-.16-5.43 1.91-6.07a5.94 5.94 0 0 1 4.23.2 19.84 19.84 0 0 1 3.56 2 12.08 12.08 0 0 0 3.89 1.83 6 6 0 0 0 5.84-1.31c.65-.59 1.3-1.19 2-1.72 1.1-.82 1.71-.77 2.79.12a6.49 6.49 0 0 1 1.78 2.25c2.41 5.09 2.63 10.11-.21 15.04Z"></path><path fill="#020201" d="M152.31 356.75a7.7 7.7 0 0 0-9.2 3.24c-.37.61-.66 1.27-1 2-.77-.05-1.33-.12-1.88-.1a5.09 5.09 0 0 0-1.66.23 2.87 2.87 0 0 1-2.66-.24c-3.88-2-7.33 0-8.9 3.05a9 9 0 0 0 2.24 10.71 6.45 6.45 0 0 0 7.6.67 3.64 3.64 0 0 1 2.69-.59 7 7 0 0 0 7.27-3.61 1.76 1.76 0 0 1 2-1.12 7.38 7.38 0 0 0 7.13-3.59 7.12 7.12 0 0 0-3.63-10.65Zm-16.8 18.38a4.41 4.41 0 0 1-3.49.17 6.28 6.28 0 0 1-3.81-4 14.82 14.82 0 0 1-.48-2.1 7.62 7.62 0 0 1 1.15-4.1 4.8 4.8 0 0 1 5.9-1.83.56.56 0 0 1 .24.94c-.23.33-.51.62-.72 1a6.6 6.6 0 0 0 .52 8.21c.26.31.58.55.85.85s.27.67-.16.86Zm2-1.89a4.35 4.35 0 0 1-2.62-3.7 4.69 4.69 0 0 1 1.57-4.33.52.52 0 0 1 .82.1 6.89 6.89 0 0 1 .23 7.93Zm7.87-2c-1.33 2.22-3.31 3.07-6 2.82a22.52 22.52 0 0 0 .91-3.48 9.65 9.65 0 0 0-1.37-6 .57.57 0 0 1 .39-.9 10.33 10.33 0 0 1 1.67-.1c.74 0 1 .2 1.07 1a7.07 7.07 0 0 0 1.36 3.53 8.68 8.68 0 0 0 1.7 1.67c.57.5.63.85.27 1.46Zm.42-3.13a2.62 2.62 0 0 1-.62-.26c-.11-.07-.15-.25-.23-.38a2.83 2.83 0 0 1-.95-2c-.16-.11-.24-.31-.09-.4.36-.22.59-.07.68.33a.57.57 0 0 1 .46.52 1.47 1.47 0 0 1 .56.93 1.66 1.66 0 0 1 .35.57c.04.25-.11.47-.16.69Zm8.93-2.05a6 6 0 0 1-5.26 3.33l-.89-.06a.83.83 0 0 1-.86-.67 3.55 3.55 0 0 1-.09-.47 6.63 6.63 0 0 0-3-5c-.88-.6-.75-1.12-.39-1.82a6.16 6.16 0 0 1 7.53-3 5.48 5.48 0 0 1 2.96 7.69Z"></path><path fill="#020201" d="M144.57 365.45a.8.8 0 0 0 .08.16c-.02-.05-.06-.1-.08-.16Z"></path><path fill="#010000" d="M214.6 330.54a15.85 15.85 0 0 0-2.22-2.19 16.25 16.25 0 0 1-5.22-9A25.36 25.36 0 0 1 208 306c.65-2.06 1.47-4.07 2.27-6.09a21.76 21.76 0 0 0 1.57-5.29 7.9 7.9 0 0 0-8.21-9.27 15 15 0 0 0-5.32 1.32 138.14 138.14 0 0 0-21.56 12.65c-5.4 3.91-10.81 7.78-16.52 11.23a22 22 0 0 1-9 3.18 14.85 14.85 0 0 1-9.35-1.54 17.75 17.75 0 0 1-8-9 27.68 27.68 0 0 1-1.14-14.94 46.84 46.84 0 0 1 7.6-18.57A100.35 100.35 0 0 1 157.91 250c5.94-5.16 12.16-10 18.28-14.93A155.06 155.06 0 0 0 197 215c1.56-1.82 3-3.78 4.43-5.67a8.66 8.66 0 0 1 1.5-2.4 4.24 4.24 0 0 1 1.31-2.08 3.85 3.85 0 0 1 .28-.66 90.76 90.76 0 0 0 9.38-20.51 3.25 3.25 0 0 0 .12-.93c0-.25-.49-.48-.74-.41a1 1 0 0 0-.71.59 22.63 22.63 0 0 0-.93 2.22 84 84 0 0 1-6.8 15.11A87.41 87.41 0 0 1 192 218a182.74 182.74 0 0 1-19.56 17.85c-5.5 4.3-10.94 8.68-16.19 13.29a102.83 102.83 0 0 0-15.72 17.23 52.82 52.82 0 0 0-8.85 18.29 34.84 34.84 0 0 0-.69 15 20 20 0 0 0 8.79 13.34 14.53 14.53 0 0 0 6.94 2.47 22.1 22.1 0 0 0 14.05-3.24c2.24-1.4 4.51-2.76 6.76-4.14 1-.18.83-.35.73.58-2.83 3.18-5.81 6.22-8.83 9.21a37.68 37.68 0 0 1-10.32 7 16.32 16.32 0 0 1-6.5 1.58 37.71 37.71 0 0 1-8.15-.6 20.32 20.32 0 0 1-8.63-3.46 35.88 35.88 0 0 1-5.91-5.3 20.63 20.63 0 0 1-5-17.44 53.74 53.74 0 0 1 4.73-14.85c1.87-4 4-7.84 6.27-11.65 2.59-4.44 5.22-8.85 7.74-13.32a106.18 106.18 0 0 0 8.48-19.62c2.17-6.73 3.72-13.62 5.28-20.5a120.66 120.66 0 0 1 4.79-16.88 56.37 56.37 0 0 1 8.36-15.37 65.82 65.82 0 0 1 11-10.77 69.76 69.76 0 0 1 15.43-8.76c2.06-.89 4.12-1.78 6.17-2.69.43-.19.95-.31 1.17-.79a1 1 0 0 0 0-.67c0-.11-.23-.2-.38-.25a1.47 1.47 0 0 0-1.16.14c-1.25.53-2.5 1.1-3.76 1.6a86.92 86.92 0 0 0-12.38 5.85 1.73 1.73 0 0 1-.46.12c-.38.29-.73.61-1.13.86a63.49 63.49 0 0 0-11.74 9.57A52.39 52.39 0 0 0 153 196.61a82.57 82.57 0 0 0-5.07 14c-1.51 6-2.89 12-4.31 18a124.14 124.14 0 0 1-7.79 23.23 171.88 171.88 0 0 1-8.83 16.08c-2.34 3.93-4.68 7.86-6.81 11.91a76.38 76.38 0 0 0-4.87 11 40.28 40.28 0 0 0-2.32 11.25 21.45 21.45 0 0 0 3.26 12.86A31.77 31.77 0 0 0 127 325.1a17.94 17.94 0 0 0 3.31 1.42 35.16 35.16 0 0 0 11.15 1.64 18.17 18.17 0 0 0 8.41-1.74 40.13 40.13 0 0 0 10.86-7.42c1.47-1.47 3-2.92 4.4-4.46a122 122 0 0 1 12.41-11.75c.37-.3.73-.62 1.09-.95 6.09-5.58 13.11-9.75 20.41-13.51a12.15 12.15 0 0 1 3.9-1.18 6.12 6.12 0 0 1 7.17 5.94 7.9 7.9 0 0 1-.38 3.09c-.5 1.35-.95 2.72-1.49 4.06a53.16 53.16 0 0 0-2.24 6.35 27.86 27.86 0 0 0-.86 11.2c.7 4.8 2.58 8.93 6.37 12a8.32 8.32 0 0 1 3.32 8.05 3.85 3.85 0 0 0 .07 1.17.45.45 0 0 0 .31.3.9.9 0 0 0 .66-.09 1.72 1.72 0 0 0 .48-.8 8.8 8.8 0 0 0-1.75-7.88Z"></path><path fill="#010101" d="M359.62 85.54c-1.53-10.13-6.92-17.44-16.16-21.82a32 32 0 0 0-20.7-2.18A39.82 39.82 0 0 0 297.63 78 33.7 33.7 0 0 0 291 97.76c0 12.25 5.49 21.18 16.52 26.57 4.32 2.1 9 2.85 14.44 2.82a39 39 0 0 0 4.15-.35c14.75-2.66 25.34-10.75 31.33-24.53a30.12 30.12 0 0 0 2.18-16.73Zm-7.69 23.25a38.39 38.39 0 0 1-24.32 16 30.27 30.27 0 0 1-19.74-2.18c-8.59-4.14-13.58-11-15-20.44A29.66 29.66 0 0 1 296.1 84c6-11.78 15.75-18.79 28.77-21a30.14 30.14 0 0 1 15.89 1.5c11.82 4.44 17.63 15 17.45 23.7s-2.3 14.94-6.28 20.59Z"></path><path fill="#1c1919" d="M125.82 381.3a9.58 9.58 0 0 0 .36 5.43.75.75 0 0 1 0 .47 1.05 1.05 0 0 1-.41.51.85.85 0 0 1-.66 0 1.06 1.06 0 0 1-.46-.52 9 9 0 0 1-.59-5.38 2.87 2.87 0 0 1 .36-.89.77.77 0 0 1 1-.37c.37.1.35.45.4.75Z"></path><path fill="#171616" d="M131 404.73a5.77 5.77 0 0 0 1.17 4.06c.63.91.51 1.74 0 1.86-.81.2-1.14-.45-1.48-1a9.84 9.84 0 0 1-1.46-4 3 3 0 0 1 .29-1.64.87.87 0 0 1 .91-.63.69.69 0 0 1 .6.87c-.03.16-.03.32-.03.48Z"></path><path fill="#161313" d="M141.15 402.37a10.61 10.61 0 0 1-.67 3.33 2.84 2.84 0 0 1-.6 1 1 1 0 0 1-1.26.39c-.37-.17-.47-.65-.11-1.23a8.6 8.6 0 0 0 1.07-3.9 3.17 3.17 0 0 1 .14-.93.73.73 0 0 1 .56-.33.92.92 0 0 1 .59.32 1.92 1.92 0 0 1 .28 1.35Z"></path><path fill="#1a1818" d="M153.28 400a3.28 3.28 0 0 1-.08.62.63.63 0 0 1-.66.55.93.93 0 0 1-.59-.33 1.27 1.27 0 0 1-.25-.66 18.93 18.93 0 0 0-.85-3.72 1.57 1.57 0 0 1-.09-.71.74.74 0 0 1 .48-.74.66.66 0 0 1 .82.31 12 12 0 0 1 1.22 4.68Z"></path><path fill="#1a1919" d="M149.4 349.51a2.06 2.06 0 0 1-.18.63.88.88 0 0 1-.55.37 1 1 0 0 1-.6-.31.82.82 0 0 1-.22-.41c-.29-1.23-.58-2.46-.83-3.69a.72.72 0 0 1 .59-.88.68.68 0 0 1 .8.36 10.5 10.5 0 0 1 .99 3.93Z"></path><path fill="#2d2929" d="M125.53 353.5c.13.11.41.23.45.41.21 1.15.4 2.32.53 3.49a.71.71 0 0 1-.54.7.65.65 0 0 1-.8-.33 4.6 4.6 0 0 1-.59-3.63.86.86 0 0 1 .95-.64Z"></path><path fill="#272525" d="M147.08 413.19c-.15-.13-.42-.23-.5-.42a2.84 2.84 0 0 1 1-2.73.52.52 0 0 1 .8.21 2.64 2.64 0 0 1-1 2.89 1.08 1.08 0 0 1-.3.05Z"></path><path fill="#5d6a6a" d="M194.27 392.14a3.17 3.17 0 0 1 .28-.62.49.49 0 0 1 .39-.17.43.43 0 0 1 .21.34 2.47 2.47 0 0 1-.42 1.79c-.26-.41.07-1.03-.46-1.34Z"></path><path d="M454.75 472.52h-1.82a12.26 12.26 0 0 0 1.82 0Z"></path><path fill="#565959" d="M457.31 462.37c.19.1.22.23.09.4l-.19.37c-.08-.09-.23-.17-.24-.27a.45.45 0 0 1 .34-.5Z"></path><path fill="#050404" d="M164 211.23a.61.61 0 0 1-.62-.47 2.24 2.24 0 0 1 .2-1.39 47 47 0 0 1 2.75-6.39 124.2 124.2 0 0 1 9.48-15.88 82.84 82.84 0 0 1 9.37-10.95 28.66 28.66 0 0 1 6.76-5c.92-.49 1.81-1 2.71-1.54a.64.64 0 0 1 .85.23.67.67 0 0 1 0 .88 4.35 4.35 0 0 1-.73.62c-.6.39-1.21.78-1.84 1.12a31.17 31.17 0 0 0-7.38 5.74 82.92 82.92 0 0 0-9.71 11.91 110.89 110.89 0 0 0-10.62 19.61 6.66 6.66 0 0 1-.68 1.26c-.13.19-.43.21-.54.25ZM201.49 193a1.13 1.13 0 0 1-.26 1.13 50.11 50.11 0 0 1-4.67 5.81A88.57 88.57 0 0 1 185 210.17c-4.31 3.21-8.73 6.27-13.33 9.06-1.57 1-3.22 1.78-4.85 2.65a10.28 10.28 0 0 1-1.33.54.84.84 0 0 1-1.06-.3.74.74 0 0 1 .38-1c.76-.45 1.55-.85 2.32-1.28a135.07 135.07 0 0 0 22.66-15.78 61.12 61.12 0 0 0 9.9-10.49 2.26 2.26 0 0 1 1-1 .68.68 0 0 1 .8.43Z"></path><path fill="#080707" d="M165.1 218.31c-.45-.23-.74-.53-.65-1a18.4 18.4 0 0 1 .61-2.32c.45-1.2.93-2.39 1.48-3.55a67 67 0 0 1 9.73-14.86A5.52 5.52 0 0 1 178 195a.66.66 0 0 1 .84.27c.13.21.24.44.08.65-.28.39-.59.76-.9 1.12a75.09 75.09 0 0 0-9.13 13.56 37.48 37.48 0 0 0-2.63 6.19 2.74 2.74 0 0 1-.6 1.29 2.09 2.09 0 0 1-.56.23Z"></path><path fill="#f38704" d="M250.11 118.25c3.27-.8 6.55-1.56 9.81-2.41s6.8-1.88 10.19-2.83a3.62 3.62 0 0 0 1.35-.48c.72-.59 1.12-.15 1.6.31 2.09 2 4.14 4 6.28 6a126.07 126.07 0 0 0 26.48 18.71 62.41 62.41 0 0 0 17.35 6.33.85.85 0 0 1 .45.14c.18.14.37.4.15.6-.69.66-1.4 1.31-2.15 1.9a145.67 145.67 0 0 1-15.47 10.63 166.41 166.41 0 0 1-16.78 8.94c-.36.17-.75.29-1.1.49a4 4 0 0 1-4.06 0 127.14 127.14 0 0 1-27.43-16.82c-2-1.6-3.95-3.29-5.89-5-1.55-1.34-1.6-1.31-.18-2.74 2.32-2.34 4.43-4.87 6.52-7.41a11.89 11.89 0 0 0 1.7-2.62 4.34 4.34 0 0 0-1.14-5.44 3.56 3.56 0 0 0-3.79-.76 14.31 14.31 0 0 0-4.39 2.91c-2.19 1.89-4.34 3.83-6.5 5.74-.42.37-.86.71-1.29 1.07a3.52 3.52 0 0 1-.65-.41 89.11 89.11 0 0 1-13.94-19.85c-.71-1.43-1.31-2.92-2-4.38a2.48 2.48 0 0 1 .15-2.49c4.25-7.28 8.37-14.63 12.7-21.86 2.63-4.4 5.57-8.63 8.38-12.93.21-.32.36-.74.86-.74.09.1.25.18.28.3a64.72 64.72 0 0 0 8.44 18.55A118.46 118.46 0 0 0 269 108.48c.49.54 1 1.06 1.47 1.6.65.75.58 1.09-.33 1.33-3.8 1-7.59 2-11.41 3-6.09 1.47-12.18 2.86-18.28 4.27a7.6 7.6 0 0 0-2.27.76.88.88 0 0 0-.42.81.81.81 0 0 0 .55.72 4.51 4.51 0 0 0 1.41.21c3.62 0 7.23 0 10.84-.26 2.56-.17 5.13-.21 7.69-.31 1.48 0 3-.79 4.39.47-3.93.83-7.85 1.69-11.78 2.47-3.62.71-7.26 1.33-10.89 2a13.4 13.4 0 0 0-1.86.49.75.75 0 0 0-.52.94c.1.51.53.55.93.54a7.9 7.9 0 0 0 1.19-.15c10.35-1.85 20.66-3.88 30.9-6.25 1.09-.26 2.17-.59 3.24-.94a5.25 5.25 0 0 0 1.28-.63.84.84 0 0 0-.18-1.4 2.62 2.62 0 0 0-.9-.28 13.82 13.82 0 0 0-1.93 0c-3.28.2-6.57.38-9.85.64-2.25.18-4.49.32-6.74.3-1.85-.05-3.74.79-5.42-.56ZM227.88 100.1a2.27 2.27 0 0 1-.56 1.65c-2.3 3.86-4.55 7.75-6.94 11.55a172.75 172.75 0 0 0-11.92 21.7c-.13.29-.25.59-.41.87a1 1 0 0 1-1 .56c-7-.06-12.43 3.28-17.2 8A55.8 55.8 0 0 0 179 160.19a26.1 26.1 0 0 0-1.8 4.72 7.57 7.57 0 0 1-2 3.74c-2.67 2.58-6.74 1.91-8.9.33a10.94 10.94 0 0 1-3.81-4.57 20.25 20.25 0 0 1-1.59-6.51 103.23 103.23 0 0 1 .43-14.18c.26-3.37.54-6.72 1.07-10.05.75-4.6 1.58-9.18 2.74-13.68 2.69-10.4 9.37-17.16 19.41-20.63a55 55 0 0 1 17.73-3h6.26a58.29 58.29 0 0 1 18.18 3.17c.35.2.78.41 1.16.57ZM288.37 168.62c-.23 5-.4 9.76-.68 14.56a49.3 49.3 0 0 1-1.17 8.09c-1.37 5.92-4.74 10.65-9 14.82a37.44 37.44 0 0 1-8.59 6.16 92.88 92.88 0 0 1-13.17 5.87 89.07 89.07 0 0 1-13.61 3.95 82.77 82.77 0 0 1-14.1 1.54c-7.47 0-14.48-1.66-20.63-6.16a14.45 14.45 0 0 1-2.19-1.86 5.44 5.44 0 0 1-.61-6.87 8.81 8.81 0 0 1 2.07-2.32 18.22 18.22 0 0 1 6.86-3.38c4.72-1.25 9.46-2.49 14.17-3.79a45.13 45.13 0 0 0 4.56-1.52 20.21 20.21 0 0 0 11.44-11.09 28.17 28.17 0 0 0 2.17-6.87 1.51 1.51 0 0 1 1.55-1.45c2.24-.2 4.46-.5 6.69-.77a92.73 92.73 0 0 0 17-3.12c5.2-1.62 10.38-3.33 15.45-5.34a3.21 3.21 0 0 1 1.79-.45Z"></path><path fill="#c96a03" d="M250.11 118.25c.41.51 1 .43 1.54.44l3.84.07a7.84 7.84 0 0 1-3 .38c-1.16.08-2.32.12-3.48.18a2.22 2.22 0 0 1-1.35 0 .39.39 0 0 1 0-.58 5.93 5.93 0 0 1 2.45-.49Z"></path><path fill="#c77003" d="M262.6 121a1.58 1.58 0 0 0-1.31-.4l-3.08-.07a6.33 6.33 0 0 1 2.76-.39c.85-.08 1.72-.09 2.58-.13.7 0 1.59-.7 1.95.54-.99.05-1.89.66-2.9.45Z"></path><path fill="#5d3e01" d="M265.5 120.59c-.5-.72-1.32-.28-1.95-.54a7.7 7.7 0 0 1 4.36-.18 3.67 3.67 0 0 1-2.41.72Z"></path><path fill="#293801" d="m247.64 119.14 1.4.18c-1.21.71-2.5.1-4.1.5.65-.89 1.15-1.16 1.84-1.08.22.26.61.18.86.4Z"></path><path fill="#010000" d="M202.79 208.8a1 1 0 0 1 .51-1 .85.85 0 0 1-.51 1Z"></path><path fill="#8f7603" d="M247.64 119.14c-.37 0-.71 0-.86-.4h.94c-.03.12-.05.26-.08.4Z"></path><path fill="#050404" d="M156.35 377.13a10.41 10.41 0 0 0-11.5 2.35 5.71 5.71 0 0 0-1.79 3.3c0 1.47-1.19 3 0 4.41a7 7 0 0 0 4.26 4.56 10.42 10.42 0 0 0 11.51-2.3 7.48 7.48 0 0 0-2.48-12.32Zm2 10.26a8.27 8.27 0 0 1-7.72 3.47 7.2 7.2 0 0 1-3.39-1.08 5.65 5.65 0 0 1-1.7-8.48 8.51 8.51 0 0 1 6.88-3.28 7.34 7.34 0 0 1 4.31 1.23 5.54 5.54 0 0 1 1.59 8.14ZM134.94 336.86a8.71 8.71 0 0 0-8.14 6c-1.62 5.85 2.91 9.51 7.37 9.07a8.38 8.38 0 0 0 7.12-5 6.89 6.89 0 0 0-6.35-10.07Zm5 8.95a6.85 6.85 0 0 1-6.31 4.38 5.14 5.14 0 0 1-4.9-7.62 6.76 6.76 0 0 1 5.88-4 5.18 5.18 0 0 1 5.39 7.24Z"></path><path fill="#070606" d="M143.06 382.78c-.55.47-.28 1.24-.68 1.83a20.18 20.18 0 0 0-1.27-2 6 6 0 0 0-5.9-2.5 5.88 5.88 0 0 0-4.94 4.39 6.74 6.74 0 0 0 1.73 6.9 6.06 6.06 0 0 0 10.1-1.93 16.43 16.43 0 0 0 .55-1.85.54.54 0 0 1 .48-.43c-.06-1.47-.07-2.94-.07-4.41Zm-8.2 8.57a5.29 5.29 0 0 1-3.18-5.39 4.47 4.47 0 0 1 4.69-4.15 4.85 4.85 0 0 1 4.44 5c.02 3.42-2.96 5.68-5.95 4.54Z"></path><path fill="#060606" d="M339.58 435.45a2.49 2.49 0 0 1 .16-.72.64.64 0 0 1 1.13-.06 2.09 2.09 0 0 1 .26.89 31.42 31.42 0 0 0 2.72 10.44 26.22 26.22 0 0 1 1.61 6.77 35.77 35.77 0 0 1 .47 3.58 25.56 25.56 0 0 0 3.07 10.03 2.36 2.36 0 0 1 .5 1.56.67.67 0 0 1-.9.5 2.69 2.69 0 0 1-1.09-1.25 25.09 25.09 0 0 1-2.95-8.35c-.36-2.21-.62-4.44-.93-6.67a24.5 24.5 0 0 0-1.83-6.7 29.25 29.25 0 0 1-2.22-10.02Z"></path><path fill="#090808" d="M375.57 370.59a1.09 1.09 0 0 1 .82.39 12.6 12.6 0 0 1 1.9 3.32 43.43 43.43 0 0 1 2.81 8.9 14.75 14.75 0 0 0 3.49 7.5 2 2 0 0 1 .4.59.73.73 0 0 1-.15.87.64.64 0 0 1-.86.14 6 6 0 0 1-1.06-.95 14 14 0 0 1-3.18-6.37 62.92 62.92 0 0 0-2.13-7.86 23.07 23.07 0 0 0-2.27-5 2.15 2.15 0 0 1-.35-.86c.01-.36.25-.56.58-.67Z"></path><path fill="#0b0b0b" d="M336.65 411.63a2 2 0 0 1 .51.41 1.44 1.44 0 0 1 .18.68c.07 4.13 1.35 8 2.67 11.85a6.46 6.46 0 0 1 .33 1.14.68.68 0 0 1-.44.76.77.77 0 0 1-.86-.26 3.65 3.65 0 0 1-.63-1 17.06 17.06 0 0 1-.89-2.48c-.75-3.17-1.88-6.28-1.7-9.62a7.58 7.58 0 0 1 .19-1.16c.07-.28.36-.26.64-.32Z"></path><path fill="#0f0909" d="M442 440.55a4.48 4.48 0 0 1 .52 0c.4.1.8.26.81.74a.77.77 0 0 1-.54.72 4.12 4.12 0 0 1-.69.18 15.41 15.41 0 0 0-7 2.93 2.6 2.6 0 0 1-1.07.48.75.75 0 0 1-.61-.29.9.9 0 0 1 0-.67 1.44 1.44 0 0 1 .41-.57c2.33-2.18 5.33-2.96 8.17-3.52Z"></path><path fill="#090808" d="M293.91 326.2v3.37a8.94 8.94 0 0 0 .27 2.13 3.21 3.21 0 0 0 3.15 2.51 6.88 6.88 0 0 0 3.08-.35 2.08 2.08 0 0 1 .92-.19.81.81 0 0 1 .59.32.85.85 0 0 1 0 .68 1.72 1.72 0 0 1-1.09.88 8.73 8.73 0 0 1-4.51.26 4.92 4.92 0 0 1-3.79-3.63 9.62 9.62 0 0 1-.39-3.81 39.76 39.76 0 0 0-1.65-14.74c-.05-.15-.12-.3-.16-.45a.86.86 0 0 1 .36-1c.37-.25.85 0 1.1.6a39.84 39.84 0 0 1 1.63 6.27 24.45 24.45 0 0 1 .49 7.15Z"></path><path fill="#0c0909" d="M321.1 338.63a17.53 17.53 0 0 1-.14 1.9 7.39 7.39 0 0 1-5.25 6.28 10.79 10.79 0 0 1-5.47.16 1.62 1.62 0 0 1-.81-.46.75.75 0 0 1-.16-.63c.05-.21.26-.51.42-.53a4.57 4.57 0 0 1 1.43 0 9 9 0 0 0 3.59-.09 5.53 5.53 0 0 0 4.27-3.82 8.64 8.64 0 0 0 .33-4.28c-.09-.56-.21-1.11-.27-1.66a.8.8 0 0 1 .55-.95c.44-.14.88.13 1.06.7a5.87 5.87 0 0 1 .28 1.17c.07.74.12 1.47.17 2.21Z"></path><path fill="#0b0707" d="M307.83 299.85a12.9 12.9 0 0 1 6.54 1.69 7.29 7.29 0 0 1 1.19.8.78.78 0 0 1 .3 1 .85.85 0 0 1-1.25.29 14.06 14.06 0 0 0-4.41-1.85 11.9 11.9 0 0 0-10.39 2.45 8.23 8.23 0 0 1-1.16.83.78.78 0 0 1-.65-.06.76.76 0 0 1-.29-.85 2.34 2.34 0 0 1 .89-1.12 13.17 13.17 0 0 1 9.23-3.18Z"></path><path fill="#0d0a0a" d="M279.69 307.31a10.6 10.6 0 0 1 4.1 1.06 6.37 6.37 0 0 1 2.84 2.83.83.83 0 0 1-.19 1.09.77.77 0 0 1-1.07-.1 4.79 4.79 0 0 1-.46-.55 7 7 0 0 0-10.2-.74 10.31 10.31 0 0 1-1.08.92.7.7 0 0 1-.64-.06.79.79 0 0 1-.27-.61 1.73 1.73 0 0 1 .38-.85 9 9 0 0 1 6.59-2.99Z"></path><path fill="#1b1717" d="M340.49 302.51c-.29.09-.57.2-.87.27s-.45-.19-.46-.4a1.35 1.35 0 0 1 1-1.43 1.29 1.29 0 0 1 1.38.71 4.5 4.5 0 0 1-3.09 6 1.4 1.4 0 0 1-.69-.14.55.55 0 0 1-.26-.36.5.5 0 0 1 .13-.41c.42-.23.89-.36 1.3-.61 1.37-.77 1.78-1.81 1.56-3.63Z"></path><path fill="#0d0909" d="M298.6 54.57c-.09.15-.17.41-.34.52a.8.8 0 0 1-.67.12 16.73 16.73 0 0 0-3-1.54 48.15 48.15 0 0 0-12.8-3 8.39 8.39 0 0 1-1.4-.25.62.62 0 0 1-.49-.72.7.7 0 0 1 .61-.64 5.93 5.93 0 0 1 1.19 0 46.6 46.6 0 0 1 14 3.23 15.83 15.83 0 0 1 2.13 1.09 1.66 1.66 0 0 1 .77 1.19Z"></path><path fill="#0c0808" d="M297.22 40a41.52 41.52 0 0 1 14.22 3.72 6.38 6.38 0 0 1 1.23.74c.6.43.78 1 .44 1.41s-.86.29-1.29 0a35.84 35.84 0 0 0-9.19-3.37 25.63 25.63 0 0 0-6.63-1 4.37 4.37 0 0 1-.72-.06.76.76 0 0 1-.59-.67.64.64 0 0 1 .53-.69c.71-.02 1.43-.02 2-.08Z"></path><path fill="#0f0c0c" d="M279.76 54a30.35 30.35 0 0 1 11.65 2.47 4.6 4.6 0 0 1 2.19 1.4.7.7 0 0 1 .1.88c-.25.35-.61.57-1 .33a20.91 20.91 0 0 0-4.85-2 30.54 30.54 0 0 0-10.4-1.48c-.54 0-1.17.18-1.38-.57-.16-.56.31-.92 1.31-1 .78-.03 1.62-.03 2.38-.03Z"></path><path fill="#0d0909" d="M290.79 44.16a39.83 39.83 0 0 1 13.65 3.66 4.46 4.46 0 0 1 1.9 1.41.75.75 0 0 1-.11 1.07.69.69 0 0 1-.88.08 35.36 35.36 0 0 0-11.66-4.19c-.7-.15-1.42-.22-2.13-.32-.47-.06-1-.06-1.42-.16s-.8-.27-.78-.77.37-.68.78-.77a2.87 2.87 0 0 1 .65-.01Z"></path><path fill="#0c0909" d="M305.69 35.91c1.11.24 2.45.49 3.77.82a39.42 39.42 0 0 1 8.9 3.59 16.4 16.4 0 0 1 1.6 1.06 1.5 1.5 0 0 1 .64 1 .91.91 0 0 1-.27.88.65.65 0 0 1-.87 0 17.54 17.54 0 0 0-1.73-1.26 37.51 37.51 0 0 0-11.67-4.32c-.4-.07-.8-.12-1.19-.22s-.79-.27-.73-.78.43-.65.84-.75a5.22 5.22 0 0 1 .71-.02Z"></path><path fill="#0c0707" d="M322.86 28.47a34 34 0 0 1 12.5 3.45 5.12 5.12 0 0 1 1.33 1 .89.89 0 0 1 .09 1.12.71.71 0 0 1-1 .18c-3.5-2.27-7.46-3.25-11.49-3.95-1-.17-2.08-.11-3.11-.18-.32 0-.63-.12-.69-.52a.75.75 0 0 1 .58-.91 17.59 17.59 0 0 1 1.79-.19Z"></path><path fill="#0c0808" d="M316.24 32.4a31.88 31.88 0 0 1 11.61 3.6 2.33 2.33 0 0 1 1.34 1.31.92.92 0 0 1-.17.9.62.62 0 0 1-.86.13 29.16 29.16 0 0 0-13.06-4.45 1.82 1.82 0 0 1-.46-.11.79.79 0 0 1-.48-.76.63.63 0 0 1 .61-.62c.32-.03.64 0 1.47 0Z"></path><path fill="#0d0808" d="M268.68 61.74a29.35 29.35 0 0 1 11.14 3.1 2.84 2.84 0 0 1 1.46 1.16.82.82 0 0 1 0 .9.75.75 0 0 1-.86.26A2.39 2.39 0 0 1 280 67a27.24 27.24 0 0 0-12.3-3.72 2 2 0 0 1-.89-.27.75.75 0 0 1-.28-.6 1 1 0 0 1 .37-.53.77.77 0 0 1 .46-.12c.46-.03.94-.02 1.32-.02Z"></path><path fill="#0e0909" d="M274.19 57.82a38.6 38.6 0 0 1 9.87 2 6.07 6.07 0 0 1 1.92 1c.44.36.63.91.39 1.23a.93.93 0 0 1-1.09.24 1 1 0 0 1-.22-.08 33.67 33.67 0 0 0-11.55-2.84 2.78 2.78 0 0 1-.7-.12.74.74 0 0 1-.54-.7.6.6 0 0 1 .56-.65c.55-.06 1.1-.07 1.36-.08Z"></path><path fill="#0e0808" d="M274.58 70.09a.58.58 0 0 1-.58.49 1.81 1.81 0 0 1-.92-.15 24.7 24.7 0 0 0-11-2.77 1.06 1.06 0 0 1-.47-.07c-.2-.1-.46-.22-.42-.51s.07-.51.22-.62a1.71 1.71 0 0 1 .87-.32 17.06 17.06 0 0 1 2.86.09 30.42 30.42 0 0 1 6.92 1.77 7.36 7.36 0 0 1 2.07 1.15 1.2 1.2 0 0 1 .45.94Z"></path><path fill="#1b1313" d="M261.9 69.66a22.18 22.18 0 0 1 4.87 1 2.52 2.52 0 0 1 1.4.88.81.81 0 0 1 .07.66.74.74 0 0 1-.54.37 3.07 3.07 0 0 1-1.17-.16 14.14 14.14 0 0 0-5.64-1 1.68 1.68 0 0 1-.67-.18.66.66 0 0 1-.18-1 2.37 2.37 0 0 1 1.86-.57Z"></path><path fill="#261e1e" d="M261.31 74.56c-1.06-.14-1.85-.21-2.62-.36a.74.74 0 0 1-.67-.81.82.82 0 0 1 .81-.72 6.88 6.88 0 0 1 2.77.39.77.77 0 0 1 .56.91c-.1.46-.49.56-.9.58-.08.01-.16-.01.05.01Z"></path><path fill="#020100" d="M294.86 155.75c-3.12.27-6.23.57-9.34.79-2.48.17-5 .26-7.44.35a6.25 6.25 0 0 1-1.43-.14 1 1 0 0 1-.79-.8.82.82 0 0 1 .54-1 16.82 16.82 0 0 1 2.31-.64c5.82-1.12 11.61-2.38 17.34-3.87 1.71-.45 3.4-1 5.09-1.45a7.24 7.24 0 0 1 .66-.47 3.84 3.84 0 0 0-2.63 0c-2.8.25-5.6.46-8.39.75-5.59.58-11.17 1.2-16.76 1.8-1.19.13-2.39.28-3.59.38a4.64 4.64 0 0 1-1.17-.11.46.46 0 0 1-.26-.34 1.08 1.08 0 0 1 .13-.65c.25-.36.68-.37 1.08-.42 3.66-.45 7.32-.94 11-1.35q8.37-.93 16.76-1.78c2.55-.26 5.12-.43 7.68-.62a13.69 13.69 0 0 1 1.92 0 1.16 1.16 0 0 1 1.08.82 1 1 0 0 1-.55 1.22 16.63 16.63 0 0 1-2.38 1.12c-3.41 1.22-6.88 2.19-10.38 3.07-1.25.32-2.48.66-3.72 1-.76.62-1.76.55-2.61.89a4.53 4.53 0 0 0-1.24.21.31.31 0 0 1-.39-.07c.05.05.12.15.15.14.79-.26 1.64-.2 2.42-.49 1-.52 2.13.35 3.17-.15 1.51-.12 3-.23 4.54-.38a23.11 23.11 0 0 1 4.32-.16 1.17 1.17 0 0 1 1 .86 1 1 0 0 1-.33 1.09 6.71 6.71 0 0 1-1.32 1 22.54 22.54 0 0 1-3.07 1.35 85.51 85.51 0 0 1-14 3.13c-1.13.16-1.81-.14-1.73-.72.12-.84.85-.84 1.46-.93a115.94 115.94 0 0 0 11.51-2.43c.62-.16 1.22-.38 1.83-.57 0-.19.82-.33.1-.53a4.06 4.06 0 0 0-2.57.1ZM292.51 132.63a2.94 2.94 0 0 1 .87.35.91.91 0 0 1 .07 1.46 6.12 6.12 0 0 1-2.33 1.21 45.72 45.72 0 0 1-7.47 1.82l-19 3-7.85 1.18a3.77 3.77 0 0 1-1.67 0 .82.82 0 0 1-.64-.64.67.67 0 0 1 .45-.76 6.59 6.59 0 0 1 1.16-.3c7.77-1.16 15.54-2.3 23.31-3.49 2.45-.38 4.88-.92 7.32-1.39a2.36 2.36 0 0 0 1.35-.58c-.2-.49-.65-.23-.94-.23q-10 .14-20 .31h-2.17a1.59 1.59 0 0 1-1.09-.42c-.34-.31-.35-1.06.05-1.26a5.6 5.6 0 0 1 1.55-.58c3.49-.53 7-1.08 10.48-1.49 4.22-.5 8.46-.87 12.69-1.28a2.28 2.28 0 0 1 .94.06.81.81 0 0 1 .43.51.7.7 0 0 1-.24.6 4.59 4.59 0 0 1-1.35.46c-1.67.23-3.34.41-5 .61-1.55.74-3.25.41-4.38.65 4.17-.15 8.82-.06 13.46.2Z"></path><path fill="#040200" d="M244.71 94.14c1.51.15 3 .28 4.54.45 1.12.12 2.23.28 3.33.47a4.77 4.77 0 0 1 1.37.44 1.22 1.22 0 0 1 .24 2.26 8.28 8.28 0 0 1-2.16 1c-1.83.57-3.69 1.08-5.55 1.55q-6.48 1.69-13.07 3.27a18.82 18.82 0 0 1-2.37.36.67.67 0 0 1-.68-.57.68.68 0 0 1 .41-.79 23.1 23.1 0 0 1 2.28-.71c5.21-1.31 10.43-2.58 15.63-3.89a8.53 8.53 0 0 0 2.85-1c0-.18.09-.28.06-.32s-.15-.08-.22-.09c-1.36-.16-2.71-.37-4.06-.45-2-.12-4-.12-6-.23a31.18 31.18 0 0 1-3.33-.4.9.9 0 0 1-.74-.84.92.92 0 0 1 .61-.94 8.06 8.06 0 0 1 1.35-.49q5.58-1.44 11.18-2.86c.72-.19 1.37.07 1.37.52s-.44.82-.91 1l-6 1.8c-.17.25-.5.08-.69.27a.51.51 0 0 1 .56.19Z"></path><path fill="#895302" d="m292.51 132.63-14.69.05a5.72 5.72 0 0 1-.85-.16 2.63 2.63 0 0 1 .72-.28c1.93 0 3.79-.78 5.74-.47.4.53 1 .45 1.53.46h5.73c.63.02 1.31-.1 1.82.4Z"></path><path fill="#c07003" d="M288.72 153.94c1 0 1.85-.67 2.86-.5.37.55 1 .33 1.5.53-1.07.58-2.26.34-3.39.47a1.25 1.25 0 0 1-1 .07.35.35 0 0 1-.11-.38c.05-.13.1-.19.14-.19Z"></path><path fill="#bc6803" d="M294.86 155.75a6.94 6.94 0 0 1 4.18-.21 2.71 2.71 0 0 1-1.75.68 1.28 1.28 0 0 0-1.05-.38c-.46-.01-.92-.06-1.38-.09Z"></path><path fill="#917203" d="M299.17 148.53c1.07-.6 2.26-.38 3.4-.45.2 0 .59-.06.54.25s-.47.28-.76.3a1.1 1.1 0 0 1-1.16 0Z"></path><path fill="#a17e04" d="M244.71 94.14a3.72 3.72 0 0 1-.67 0c-.12 0-.2-.18-.3-.28.06 0 .12-.11.19-.12.3 0 .6 0 .9-.06Z"></path><path fill="#a73001" d="M301.19 148.62h1.16a1.26 1.26 0 0 1-1.21.4 1.84 1.84 0 0 0 .05-.4Z"></path><path fill="#090500" d="M200.94 107.19a75.56 75.56 0 0 0 .34 7.67c.16 1.32-.2 2-.83 1.9-.94-.19-.89-1-.93-1.71a83.92 83.92 0 0 1 0-11.76 2.74 2.74 0 0 1 .52-1.8.77.77 0 0 1 .62-.21.78.78 0 0 1 .52.43 1.94 1.94 0 0 1 0 .93 31.5 31.5 0 0 0-.24 4.55Z"></path><path fill="#110900" d="M189.39 115.35c0 1.27-.23 1.88-.79 1.8-.86-.12-.85-.88-.93-1.48-.27-2.06-.49-4.13-.73-6.2-.12-1-.23-2.06-.34-3.1a1.45 1.45 0 0 1 .27-1.13c.24-.28.87-.31 1 0a2.12 2.12 0 0 1 .28.66c.45 3.17.85 6.35 1.24 9.45Z"></path><path fill="#0d0700" d="M174.83 119.24a1.27 1.27 0 0 1 1 .63c1.23 1.58 2.46 3.16 3.64 4.78.67.9 1.25 1.86 1.87 2.79a2.21 2.21 0 0 1 .41 1.36.69.69 0 0 1-.53.71.94.94 0 0 1-.65-.16 2.64 2.64 0 0 1-.58-.74 70.62 70.62 0 0 0-4.9-7.11 10.43 10.43 0 0 1-.86-1.43c-.18-.32.28-.88.6-.83Z"></path><path fill="#0e0700" d="M177.49 115.29c.16 0 .35 0 .45.15a3.84 3.84 0 0 1 .59.74c1.35 2.27 2.7 4.55 4 6.84a15.28 15.28 0 0 1 .88 2 .69.69 0 0 1-.33.83.77.77 0 0 1-1.06-.21 2.66 2.66 0 0 1-.28-.38L177.2 117a1.84 1.84 0 0 1-.34-1.13c.05-.34.31-.49.63-.58Z"></path><path fill="#180d00" d="M192.71 108.11v-4.3a1.38 1.38 0 0 1 .36-1.1c.17-.16.37-.32.63-.2s.31.14.36.26a2.87 2.87 0 0 1 .21.91q.15 3.94.26 7.89a3.88 3.88 0 0 1-.23 1.88.76.76 0 0 1-.76.46.71.71 0 0 1-.69-.55 5.14 5.14 0 0 1-.13-1.18v-4.07Z"></path><path fill="#0e0700" d="M184.83 120.51a6.19 6.19 0 0 1-.24.63.63.63 0 0 1-1 .15 2.76 2.76 0 0 1-.47-.81c-.81-2.76-2-5.37-3.07-8a3.75 3.75 0 0 1-.28-1.13c0-.18.21-.41.38-.55s.46-.08.65.07a1.46 1.46 0 0 1 .46.53 64.62 64.62 0 0 1 3.36 8.17c.09.27.14.59.21.94Z"></path><path fill="#0d0700" d="M190.09 109c-.07-1.44-.17-2.88-.21-4.32a1.77 1.77 0 0 1 .23-.9 1 1 0 0 1 .59-.29.51.51 0 0 1 .39.21 1.57 1.57 0 0 1 .28.65c.13 1 .26 1.91.33 2.86.12 1.85.19 3.69.3 5.53a3.6 3.6 0 0 1-.17 1.66.7.7 0 0 1-.74.47.71.71 0 0 1-.67-.59 6.8 6.8 0 0 1-.13-1.43V109Z"></path><path fill="#0e0700" d="M174.44 126.87c-.28-.64-.95-1.08-1-1.85a.82.82 0 0 1 .35-.82.62.62 0 0 1 .85.16 74.26 74.26 0 0 1 5.08 6.87 5.52 5.52 0 0 1 .55 1.3c.19.62-.09.89-1 1.13a21.52 21.52 0 0 1-4.83-6.79Z"></path><path fill="#100900" d="M183.8 107.54a1.76 1.76 0 0 1 .55.3 1.83 1.83 0 0 1 .26.64c.72 2.53 1.44 5 2.14 7.59.32 1.15.09 2.07-.51 2-.94 0-1-.9-1.18-1.57q-.93-3.33-1.78-6.69a7.57 7.57 0 0 1-.16-1.65c0-.31.28-.51.68-.62Z"></path><path fill="#0c0700" d="M178.68 134.22a9.56 9.56 0 0 1 .22 1.39c0 .68-.43 1-1.11.82-.9-.21-.95-1.1-1.38-1.68-.75-1.55-2-2.82-2.4-4.57-.34-.52-.7-1-1-1.58s-.06-.9.88-1.18c2.45 1.67 3.74 4.15 4.79 6.8Z"></path><path fill="#0b0600" d="M196.11 107.23v-3.82a1.72 1.72 0 0 1 .27-.88.9.9 0 0 1 .61-.2.48.48 0 0 1 .37.23 1.51 1.51 0 0 1 .24.66 69 69 0 0 1 0 7.88 3.55 3.55 0 0 1-.08.47.87.87 0 0 1-.81.75c-.48 0-.69-.39-.71-.79 0-.79 0-1.59.06-2.39v-1.91Z"></path><path fill="#0c0700" d="M177.74 137.53c-.06 1.31-.3 1.46-1.4.94a10.19 10.19 0 0 1-1.7-2.56c-.33-.5-.62-1-1-1.51a3.27 3.27 0 0 1-.63-1.33c-.21-.31-.43-.62-.62-.94-.61-1-.4-1.32 1-1.32 1.73.82 2.27 2.6 3.24 4a22.25 22.25 0 0 1 1.11 2.72Z"></path><path fill="#0f0a00" d="M175.93 138.47c.06.69-.12 1.23-.91 1.34-1.41-.46-1.65-1.7-2-2.91-.26-.45-.51-.91-.81-1.34a1.48 1.48 0 0 1-.24-1.48 1.28 1.28 0 0 1 1.58.11c.36.57.76 1.09 1.13 1.65a10.6 10.6 0 0 1 1.25 2.63Z"></path><path fill="#140c00" d="M174.3 139.92a4.4 4.4 0 0 1 .12.94.65.65 0 0 1-1 .48 8.5 8.5 0 0 1-2.24-3.3.57.57 0 0 1 .47-.71 2.92 2.92 0 0 1 .9.17c1.07.43 1.45 1.43 1.75 2.42Z"></path><path fill="#bb6803" d="M178.68 134.22a71.68 71.68 0 0 0-4.79-6.8l.55-.55a23.15 23.15 0 0 1 3.56 4.74c.43.66.81 1.36 1.21 2-.21.23-.36.39-.53.61Z"></path><path fill="#c16a03" d="m176.41 135-3-4.22.62-.63a15.68 15.68 0 0 1 2.85 4.4c.18.53-.05.61-.47.45Z"></path><path fill="#bd6a03" d="M174.3 139.92a7.26 7.26 0 0 1-1.8-2.42l.57-.6c.93.78 1.13 2 2 2.91Z"></path><path fill="#7e4702" d="M175.93 138.47a7.6 7.6 0 0 1-1.48-2.43c.13-.19.17-.47.47-.5a6 6 0 0 1 1.42 2.93h-.21Z"></path><path fill="#7f4302" d="m176.41 135 .45-.45c.62.47.52 1.29.93 1.85v1.1a9.68 9.68 0 0 1-1.38-2.5Z"></path><path fill="#bf7203" d="M173.5 134.58a1.61 1.61 0 0 0-1.48-.5l1-1a2 2 0 0 1 .89 1.07c.23.48.01.54-.41.43Z"></path><path fill="#110900" d="M249 187.13a6.25 6.25 0 0 1 .81.17 22.91 22.91 0 0 1 6.33 3.31 3.72 3.72 0 0 1 .82.86.78.78 0 0 1 0 1.08.71.71 0 0 1-1.05.09c-.13-.09-.25-.2-.37-.3a20.43 20.43 0 0 0-6-3.42 4 4 0 0 1-1.05-.55.86.86 0 0 1-.23-.63c0-.36.28-.52.74-.61Z"></path><path fill="#110a00" d="M258.65 188.86a.72.72 0 0 1-.69.52 2.87 2.87 0 0 1-1.12-.38 31.25 31.25 0 0 0-6.84-2.9c-.46-.12-.93-.34-.9-.95s.59-.73 1.35-.56a26.74 26.74 0 0 1 7.72 3.23.92.92 0 0 1 .48 1.04Z"></path><path fill="#110900" d="M246.58 189.91a6.72 6.72 0 0 1 .9.28 27.82 27.82 0 0 1 6 4 2.81 2.81 0 0 1 .34.35c.46.54.5 1.17.07 1.47s-.91.06-1.27-.27a29.69 29.69 0 0 0-5.86-4.14 2.1 2.1 0 0 1-.76-.6.7.7 0 0 1 0-.66c.07-.22.35-.29.58-.43Z"></path><path fill="#120b00" d="M251.64 181.74a5.07 5.07 0 0 1 .88.13 44.13 44.13 0 0 1 6.33 2.16 2.19 2.19 0 0 1 .59.4.75.75 0 0 1 .2.87.73.73 0 0 1-.77.44 3.27 3.27 0 0 1-.92-.23 44.53 44.53 0 0 0-6.56-2.25 1 1 0 0 1-.43-.18.76.76 0 0 1-.35-.81c.06-.28.27-.38.49-.46a3.25 3.25 0 0 1 .54-.07Z"></path><path fill="#140b00" d="M251.07 197.44c0 .61-.5 1-.85.81a1.84 1.84 0 0 1-.62-.33 36.12 36.12 0 0 0-4-3.45 3.25 3.25 0 0 1-.63-.7.68.68 0 0 1 0-.87.61.61 0 0 1 .83-.23 27 27 0 0 1 4.92 4.13 1.67 1.67 0 0 1 .35.64Z"></path><path fill="#170c00" d="M248.05 200a.73.73 0 0 1-1 .38 4.79 4.79 0 0 1-.55-.46l-3-3.08a6.06 6.06 0 0 1-.47-.54.91.91 0 0 1 0-1.28.83.83 0 0 1 1.08.15c.76.7 1.52 1.4 2.23 2.15a20.44 20.44 0 0 1 1.54 1.81.81.81 0 0 1 .17.87Z"></path><path fill="#140a00" d="M241.78 197a1 1 0 0 1 .45.14 20.17 20.17 0 0 1 3 3.33.74.74 0 0 1 .11.45 1.13 1.13 0 0 1-.22.63 1.1 1.1 0 0 1-.64.13.69.69 0 0 1-.42-.2c-.94-1.07-1.87-2.14-2.77-3.23a1 1 0 0 1-.16-.66.76.76 0 0 1 .65-.59Z"></path><path fill="#180c00" d="M242.22 202.75a.81.81 0 0 1-1 .32 5.89 5.89 0 0 1-2.35-3.17.64.64 0 0 1 .95-.62 10.65 10.65 0 0 1 2.36 2.94c.09.11.04.3.04.53Z"></path><path fill="#170b00" d="M236.66 201.14c.15 0 .34 0 .44.1a5.82 5.82 0 0 1 1.58 2.3.72.72 0 0 1-.27.84.64.64 0 0 1-.86 0 5.86 5.86 0 0 1-1.49-2.36.69.69 0 0 1 .6-.88Z"></path><path fill="#271200" d="M235.65 204.6a.72.72 0 0 1-.86.56 2.68 2.68 0 0 1-1.32-2.3.81.81 0 0 1 .42-.51.75.75 0 0 1 .64 0 3.08 3.08 0 0 1 1.12 2.25Z"></path><path fill="#070606" d="M314.69 310.32a3.89 3.89 0 0 0-4.14-1.15 3.73 3.73 0 0 0-2.15 3.69 5 5 0 0 0 3 4.51 3.34 3.34 0 0 0 4.22-1.7 5 5 0 0 0-.93-5.35Zm-2.38 3.4a1 1 0 0 1-1.61.35 2.88 2.88 0 0 1-.89-2.33 3 3 0 0 1 .24-.72.69.69 0 0 1 .81-.37 2.29 2.29 0 0 1 1.45 3.07Zm1.89 1.08a.73.73 0 0 1-.56-.87c0-.41.2-.77.66-.79s.77.62.73 1a.81.81 0 0 1-.83.66ZM283.13 316.76a3.89 3.89 0 0 0-3.9-1.81 3.73 3.73 0 0 0-2.71 3.3 5 5 0 0 0 2.26 4.93 3.32 3.32 0 0 0 4.44-1 4.92 4.92 0 0 0-.09-5.42Zm-2.89 3a1 1 0 0 1-1.65.09 2.92 2.92 0 0 1-.5-2.44 2.72 2.72 0 0 1 .35-.67.68.68 0 0 1 .86-.23 2.29 2.29 0 0 1 .94 3.21Zm1.69 1.37a.72.72 0 0 1-.41-.94c.1-.4.32-.72.78-.67s.65.73.55 1.14a.79.79 0 0 1-.92.43Z"></path><path fill="#712301" d="m288.73 154.31 1 .13c-1.09.65-2.24.39-3.5.36.44-.61 1-.4 1.4-.47a1 1 0 0 1 1.1-.02Z"></path><path fill="#5d6303" d="M288.73 154.31h-1.14a1.07 1.07 0 0 1 1.13-.39.77.77 0 0 0 .01.39Z"></path><path fill="#9a5603" d="m173.5 134.58.43-.44a3.3 3.3 0 0 1 1 1.4l-.47.5c-.33-.49-.64-.98-.96-1.46Z"></path><path fill="#0b0a0a" d="M313.62 116.67a2.5 2.5 0 0 1-2.5 2.42 2.39 2.39 0 0 1-2.46-2.16 2.33 2.33 0 0 1 2.29-2.54 2.63 2.63 0 0 1 2.67 2.28Z"></path><path fill="#0b0808" d="M299.47 108.62a2.3 2.3 0 0 1-2.25-2.34 2.45 2.45 0 0 1 2.49-2.41 2.42 2.42 0 0 1 2.41 2.23 2.55 2.55 0 0 1-2.65 2.52Z"></path><path fill="#0a0808" d="M328.2 117.73a2.19 2.19 0 0 1 2.45 2 2.7 2.7 0 0 1-2.48 2.72 2.46 2.46 0 0 1-2.36-2.25 2.58 2.58 0 0 1 2.39-2.47Z"></path><path fill="#0c0b0b" d="M333.44 67a2 2 0 0 1 2.08-2.09 2.44 2.44 0 0 1 2.39 2.19 2.28 2.28 0 0 1-2.1 2.41 2.6 2.6 0 0 1-2.37-2.51Z"></path><path fill="#0a0808" d="M298.36 89.83a2.09 2.09 0 0 1-1.95-2.47 2 2 0 0 1 2.45-2 2.43 2.43 0 0 1 1.87 2.66 2 2 0 0 1-2.37 1.81Z"></path><path fill="#0f0e0e" d="M311.83 70.32a1.72 1.72 0 0 1 .85-1.51 1.56 1.56 0 0 1 1.81 0 3.59 3.59 0 0 1 1.25 1.11 2 2 0 0 1-.13 2.25 1.85 1.85 0 0 1-2.17.49 2.56 2.56 0 0 1-1.61-2.34Z"></path><path fill="#0b0707" d="M356.15 94.56a2 2 0 0 1-1.85 2.08 2.3 2.3 0 0 1-2.17-2.36 2.08 2.08 0 0 1 2.14-2.06 2.16 2.16 0 0 1 1.88 2.34Z"></path><path fill="#070404" d="M351.87 78.71a1.92 1.92 0 0 1-1.93 2 1.86 1.86 0 0 1-2-1.87 2 2 0 0 1 1.76-2.17 2.11 2.11 0 0 1 2.17 2.04Z"></path><path fill="#0e0b0b" d="M346.18 109.54a1.83 1.83 0 0 0-2.28.39 5.74 5.74 0 0 0-.35.47 1.77 1.77 0 0 0-.21 1.4 3 3 0 0 0 .49 1.06 1.8 1.8 0 0 0 2.54.36 2.25 2.25 0 0 0-.19-3.68Z"></path><path fill="#f38704" d="M324.67 114.4a22.4 22.4 0 0 1-14.92-6.28 19.42 19.42 0 0 1 .49-29 23.79 23.79 0 0 1 30.57-.48c10.75 9 9.56 25-2.71 32.41a24.46 24.46 0 0 1-13.43 3.35Z"></path><path fill="#060300" d="M314.34 109c-.48-.11-.65-.43-.6-.73a6.15 6.15 0 0 1 .46-1.35 74.05 74.05 0 0 1 4.2-8.11c3.3-5.68 6.59-11.37 9.92-17 .73-1.24 1.55-2.44 2.38-3.61.59-.84 1.15-1 1.55-.58s.21 1-.11 1.5c-4.12 6-7.46 12.53-11.19 18.8a99 99 0 0 0-5.41 9.91 3.91 3.91 0 0 1-.65 1c-.14.17-.42.17-.55.17Z"></path><path fill="#080400" d="M311.61 100c-.39 0-.66-.18-.74-.55a1.67 1.67 0 0 1 .33-1.12l8.4-15.44a18.7 18.7 0 0 1 1.31-2 .87.87 0 0 1 1.25-.3c.45.39.32.85.09 1.3l-.12.21c-3.24 5.27-6 10.81-9.06 16.17a14.8 14.8 0 0 1-.88 1.43c-.13.18-.41.23-.58.3Z"></path><path fill="#090500" d="M333 91.23c.14.54-.2.92-.45 1.32l-6.14 10c-.79 1.3-1.54 2.62-2.33 3.92a7.29 7.29 0 0 1-.84 1.14.57.57 0 0 1-.85 0 .86.86 0 0 1-.26-.62 4.15 4.15 0 0 1 .44-1.1c2.62-4.76 5.48-9.38 8.33-14a2.36 2.36 0 0 1 1.16-1.15c.35-.12.94.15.94.49Z"></path><path fill="#0a0600" d="M336.73 97.45a7 7 0 0 1-.33.82q-3.27 6.17-6.56 12.31c-.29.54-.51 1.28-1.35 1.11-.45-.08-.61-.78 0-1.88 2.06-3.9 4.06-7.83 6.1-11.74a2.77 2.77 0 0 1 .95-1.35 1 1 0 0 1 .67-.07c.31.08.42.4.52.8Z"></path></g></svg>